<mxfile host="Electron" modified="2023-05-25T13:03:21.505Z" agent="Mozilla/5.0 (Macintosh; Intel Mac OS X 10_15_7) AppleWebKit/537.36 (KHTML, like Gecko) draw.io/21.2.8 Chrome/112.0.5615.165 Electron/24.2.0 Safari/537.36" etag="qLpA5mWUbI_6Vf0xY33O" version="21.2.8" type="device">
  <diagram name="Page-1" id="8378b5f6-a2b2-b727-a746-972ab9d02e00">
    <mxGraphModel dx="1546" dy="1087" grid="1" gridSize="10" guides="1" tooltips="1" connect="0" arrows="1" fold="1" page="1" pageScale="1.5" pageWidth="1169" pageHeight="827" background="none" math="0" shadow="0">
      <root>
        <mxCell id="0" />
        <mxCell id="1" parent="0" />
        <mxCell id="PKh9Vj9JBxwzqT7HPsBS-311" value="" style="rounded=0;whiteSpace=wrap;html=1;" parent="1" vertex="1">
          <mxGeometry x="90" y="290" width="2600" height="800" as="geometry" />
        </mxCell>
        <mxCell id="63" value="" style="strokeColor=#999999;fillColor=#ADC3D9" parent="1" vertex="1">
          <mxGeometry x="126.5" y="380" width="40" height="20" as="geometry" />
        </mxCell>
        <mxCell id="64" value="Complete project execution" style="align=left;strokeColor=#999999;fillColor=#ADC3D9" parent="1" vertex="1">
          <mxGeometry x="166.5" y="380" width="200" height="20" as="geometry" />
        </mxCell>
        <mxCell id="65" value="99 days" style="strokeColor=#999999;fillColor=#ADC3D9" parent="1" vertex="1">
          <mxGeometry x="446.50000000000176" y="380" width="80.00000000000028" height="20" as="geometry" />
        </mxCell>
        <mxCell id="66" value="17.02.23" style="strokeColor=#999999;fillColor=#ADC3D9" parent="1" vertex="1">
          <mxGeometry x="526.500000000002" y="380" width="80.00000000000028" height="20" as="geometry" />
        </mxCell>
        <mxCell id="67" value="24.05.23" style="strokeColor=#999999;fillColor=#ADC3D9" parent="1" vertex="1">
          <mxGeometry x="606.5000000000016" y="380.0000000000002" width="80.00000000000028" height="20" as="geometry" />
        </mxCell>
        <mxCell id="68" value="" style="strokeColor=#999999;" parent="1" vertex="1">
          <mxGeometry x="686.5" y="380" width="20" height="660" as="geometry" />
        </mxCell>
        <mxCell id="69" value="A" style="strokeColor=#999999;fillColor=#CCE5FF" parent="1" vertex="1">
          <mxGeometry x="126.50000000000026" y="399.9999999999999" width="40" height="20" as="geometry" />
        </mxCell>
        <mxCell id="70" value="Project Initialization" style="align=left;strokeColor=#999999;fillColor=#CCE5FF" parent="1" vertex="1">
          <mxGeometry x="166.50000000000026" y="399.9999999999999" width="200" height="20" as="geometry" />
        </mxCell>
        <mxCell id="71" value="20 days" style="strokeColor=#999999;fillColor=#CCE5FF" parent="1" vertex="1">
          <mxGeometry x="446.500000000002" y="399.99999999999983" width="80.00000000000028" height="20" as="geometry" />
        </mxCell>
        <mxCell id="72" value="17.02.23" style="strokeColor=#999999;fillColor=#CCE5FF" parent="1" vertex="1">
          <mxGeometry x="526.5000000000023" y="399.99999999999983" width="80.00000000000028" height="20" as="geometry" />
        </mxCell>
        <mxCell id="73" value="08.03.23" style="strokeColor=#999999;fillColor=#CCE5FF" parent="1" vertex="1">
          <mxGeometry x="606.5000000000018" y="400.0000000000001" width="80.00000000000028" height="20" as="geometry" />
        </mxCell>
        <mxCell id="74" value="1" style="strokeColor=#999999;" parent="1" vertex="1">
          <mxGeometry x="126.50000000000027" y="419.9999999999998" width="40" height="20" as="geometry" />
        </mxCell>
        <mxCell id="75" value="Project overviewÂ " style="align=left;strokeColor=#999999;" parent="1" vertex="1">
          <mxGeometry x="166.50000000000028" y="419.9999999999998" width="200" height="20.000000000000014" as="geometry" />
        </mxCell>
        <mxCell id="76" value="1 day" style="strokeColor=#999999;" parent="1" vertex="1">
          <mxGeometry x="446.500000000002" y="419.9999999999997" width="80.00000000000028" height="20" as="geometry" />
        </mxCell>
        <mxCell id="77" value="17.02.23" style="strokeColor=#999999;" parent="1" vertex="1">
          <mxGeometry x="526.5000000000023" y="419.9999999999997" width="80.00000000000028" height="20" as="geometry" />
        </mxCell>
        <mxCell id="78" value="18.02.23" style="strokeColor=#999999;" parent="1" vertex="1">
          <mxGeometry x="606.5000000000018" y="420" width="80.00000000000028" height="20" as="geometry" />
        </mxCell>
        <mxCell id="79" value="2" style="strokeColor=#999999;" parent="1" vertex="1">
          <mxGeometry x="126.5" y="440.00000000000017" width="40" height="20" as="geometry" />
        </mxCell>
        <mxCell id="80" value="Document Initialization" style="align=left;strokeColor=#999999;" parent="1" vertex="1">
          <mxGeometry x="166.5" y="440.00000000000017" width="200" height="20" as="geometry" />
        </mxCell>
        <mxCell id="81" value="2 days" style="strokeColor=#999999;" parent="1" vertex="1">
          <mxGeometry x="446.5000000000017" y="440.0000000000001" width="80.00000000000028" height="20" as="geometry" />
        </mxCell>
        <mxCell id="82" value="18.02.23" style="strokeColor=#999999;" parent="1" vertex="1">
          <mxGeometry x="526.500000000002" y="440.0000000000001" width="80.00000000000028" height="20" as="geometry" />
        </mxCell>
        <mxCell id="83" value="20.02.23" style="strokeColor=#999999;" parent="1" vertex="1">
          <mxGeometry x="606.5000000000015" y="440.0000000000004" width="80.00000000000028" height="20" as="geometry" />
        </mxCell>
        <mxCell id="84" value="5" style="strokeColor=#999999;" parent="1" vertex="1">
          <mxGeometry x="126.49999999999991" y="460.00000000000017" width="40" height="20" as="geometry" />
        </mxCell>
        <mxCell id="85" value="Purpose and Scope" style="align=left;strokeColor=#999999;" parent="1" vertex="1">
          <mxGeometry x="166.49999999999991" y="460.00000000000017" width="200" height="20" as="geometry" />
        </mxCell>
        <mxCell id="86" value="1 day" style="strokeColor=#999999;" parent="1" vertex="1">
          <mxGeometry x="446.50000000000165" y="460.0000000000001" width="80.00000000000028" height="20" as="geometry" />
        </mxCell>
        <mxCell id="87" value="20.02.23" style="strokeColor=#999999;" parent="1" vertex="1">
          <mxGeometry x="526.5000000000019" y="460.0000000000001" width="80.00000000000028" height="20" as="geometry" />
        </mxCell>
        <mxCell id="88" value="21.02.23" style="strokeColor=#999999;" parent="1" vertex="1">
          <mxGeometry x="606.5000000000015" y="460.0000000000004" width="80.00000000000028" height="20" as="geometry" />
        </mxCell>
        <mxCell id="89" value="6" style="strokeColor=#999999;" parent="1" vertex="1">
          <mxGeometry x="126.4999999999999" y="480.00000000000045" width="40" height="20" as="geometry" />
        </mxCell>
        <mxCell id="90" value="Requirements" style="align=left;strokeColor=#999999;" parent="1" vertex="1">
          <mxGeometry x="166.4999999999999" y="480.00000000000045" width="200" height="20" as="geometry" />
        </mxCell>
        <mxCell id="91" value="2 days" style="strokeColor=#999999;" parent="1" vertex="1">
          <mxGeometry x="446.50000000000165" y="480.00000000000034" width="80.00000000000028" height="20" as="geometry" />
        </mxCell>
        <mxCell id="92" value="21.02.23" style="strokeColor=#999999;" parent="1" vertex="1">
          <mxGeometry x="526.5000000000019" y="480.00000000000034" width="80.00000000000028" height="20" as="geometry" />
        </mxCell>
        <mxCell id="93" value="23.02.23" style="strokeColor=#999999;" parent="1" vertex="1">
          <mxGeometry x="606.5000000000015" y="480.0000000000007" width="80.00000000000028" height="20" as="geometry" />
        </mxCell>
        <mxCell id="94" value="7" style="strokeColor=#999999;" parent="1" vertex="1">
          <mxGeometry x="126.50000000000063" y="500.0000000000007" width="40" height="20" as="geometry" />
        </mxCell>
        <mxCell id="95" value="Project Schedule" style="align=left;strokeColor=#999999;" parent="1" vertex="1">
          <mxGeometry x="166.50000000000063" y="500.0000000000007" width="200" height="20" as="geometry" />
        </mxCell>
        <mxCell id="96" value="14 days" style="strokeColor=#999999;" parent="1" vertex="1">
          <mxGeometry x="446.5000000000024" y="500.0000000000007" width="80.00000000000028" height="20" as="geometry" />
        </mxCell>
        <mxCell id="97" value="23.02.23" style="strokeColor=#999999;" parent="1" vertex="1">
          <mxGeometry x="526.5000000000027" y="500.0000000000007" width="80.00000000000028" height="20" as="geometry" />
        </mxCell>
        <mxCell id="98" value="08.03.23" style="strokeColor=#999999;" parent="1" vertex="1">
          <mxGeometry x="606.5000000000022" y="500.0000000000009" width="80.00000000000028" height="20" as="geometry" />
        </mxCell>
        <mxCell id="99" value="B" style="strokeColor=#999999;fillColor=#DEEDFF;" parent="1" vertex="1">
          <mxGeometry x="126.50000000000064" y="520.0000000000006" width="40" height="20" as="geometry" />
        </mxCell>
        <mxCell id="100" value="Design Pattern" style="align=left;strokeColor=#999999;fillColor=#DEEDFF;" parent="1" vertex="1">
          <mxGeometry x="166.50000000000063" y="520.0000000000006" width="200" height="20" as="geometry" />
        </mxCell>
        <mxCell id="101" value="11 days" style="strokeColor=#999999;fillColor=#DEEDFF;" parent="1" vertex="1">
          <mxGeometry x="446.5000000000024" y="520.0000000000006" width="80.00000000000028" height="20" as="geometry" />
        </mxCell>
        <mxCell id="102" value="08.03.23" style="strokeColor=#999999;fillColor=#DEEDFF;" parent="1" vertex="1">
          <mxGeometry x="526.5000000000027" y="520.0000000000006" width="80.00000000000028" height="20" as="geometry" />
        </mxCell>
        <mxCell id="103" value="19.03.23" style="strokeColor=#999999;fillColor=#DEEDFF;" parent="1" vertex="1">
          <mxGeometry x="606.5000000000022" y="520.0000000000008" width="80.00000000000028" height="20" as="geometry" />
        </mxCell>
        <mxCell id="104" value="1" style="strokeColor=#999999;" parent="1" vertex="1">
          <mxGeometry x="126.50000000000037" y="540.000000000001" width="40" height="20" as="geometry" />
        </mxCell>
        <mxCell id="105" value="Gantt chart" style="align=left;strokeColor=#999999;" parent="1" vertex="1">
          <mxGeometry x="166.50000000000037" y="540.000000000001" width="200" height="20.00000000000003" as="geometry" />
        </mxCell>
        <mxCell id="106" value="2 days" style="strokeColor=#999999;" parent="1" vertex="1">
          <mxGeometry x="446.5000000000021" y="540.0000000000009" width="80.00000000000028" height="20" as="geometry" />
        </mxCell>
        <mxCell id="107" value="08.03.23" style="strokeColor=#999999;" parent="1" vertex="1">
          <mxGeometry x="526.5000000000025" y="540.0000000000009" width="80.00000000000028" height="20" as="geometry" />
        </mxCell>
        <mxCell id="108" value="10.03.23" style="strokeColor=#999999;fillColor=default;gradientColor=none;" parent="1" vertex="1">
          <mxGeometry x="606.5000000000018" y="540.0000000000013" width="80.00000000000028" height="20" as="geometry" />
        </mxCell>
        <mxCell id="109" value="2" style="strokeColor=#999999;" parent="1" vertex="1">
          <mxGeometry x="126.50000000000028" y="560.000000000001" width="40" height="20" as="geometry" />
        </mxCell>
        <mxCell id="110" value="Use case diagram" style="align=left;strokeColor=#999999;" parent="1" vertex="1">
          <mxGeometry x="166.50000000000028" y="560.000000000001" width="200" height="20" as="geometry" />
        </mxCell>
        <mxCell id="111" value="5 days" style="strokeColor=#999999;" parent="1" vertex="1">
          <mxGeometry x="446.50000000000205" y="560.0000000000009" width="80.00000000000028" height="20" as="geometry" />
        </mxCell>
        <mxCell id="112" value="10.03.23" style="strokeColor=#999999;" parent="1" vertex="1">
          <mxGeometry x="526.5000000000023" y="560.0000000000009" width="80.00000000000028" height="20" as="geometry" />
        </mxCell>
        <mxCell id="113" value="15.03.23" style="strokeColor=#999999;" parent="1" vertex="1">
          <mxGeometry x="606.5000000000018" y="560.0000000000013" width="80.00000000000028" height="20" as="geometry" />
        </mxCell>
        <mxCell id="114" value="3" style="strokeColor=#999999;" parent="1" vertex="1">
          <mxGeometry x="126.50000000000027" y="580.0000000000013" width="40" height="20" as="geometry" />
        </mxCell>
        <mxCell id="115" value="ERD Diagram" style="align=left;strokeColor=#999999;" parent="1" vertex="1">
          <mxGeometry x="166.50000000000028" y="580.0000000000013" width="200" height="20" as="geometry" />
        </mxCell>
        <mxCell id="116" value="4 days" style="strokeColor=#999999;" parent="1" vertex="1">
          <mxGeometry x="446.50000000000205" y="580.0000000000011" width="80.00000000000028" height="20" as="geometry" />
        </mxCell>
        <mxCell id="117" value="15.03.23" style="strokeColor=#999999;" parent="1" vertex="1">
          <mxGeometry x="526.5000000000023" y="580.0000000000011" width="80.00000000000028" height="20" as="geometry" />
        </mxCell>
        <mxCell id="118" value="19.03.23" style="strokeColor=#999999;" parent="1" vertex="1">
          <mxGeometry x="606.5000000000018" y="580.0000000000015" width="80.00000000000028" height="20" as="geometry" />
        </mxCell>
        <mxCell id="119" value="C" style="strokeColor=#999999;fillColor=#DEEDFF;" parent="1" vertex="1">
          <mxGeometry x="126.49999999999997" y="600.0000000000016" width="40" height="20" as="geometry" />
        </mxCell>
        <mxCell id="120" value="Design and Implement UI" style="align=left;strokeColor=#999999;fillColor=#DEEDFF;" parent="1" vertex="1">
          <mxGeometry x="166.49999999999997" y="600.0000000000016" width="200" height="20" as="geometry" />
        </mxCell>
        <mxCell id="121" value="26 days" style="strokeColor=#999999;fillColor=#DEEDFF;" parent="1" vertex="1">
          <mxGeometry x="446.5000000000017" y="600.0000000000015" width="80.00000000000028" height="20" as="geometry" />
        </mxCell>
        <mxCell id="122" value="19.03.23" style="strokeColor=#999999;fillColor=#DEEDFF;" parent="1" vertex="1">
          <mxGeometry x="526.500000000002" y="600.0000000000015" width="80.00000000000028" height="20" as="geometry" />
        </mxCell>
        <mxCell id="123" value="14.04.23" style="strokeColor=#999999;fillColor=#DEEDFF;" parent="1" vertex="1">
          <mxGeometry x="606.5000000000015" y="600.0000000000018" width="80.00000000000028" height="20" as="geometry" />
        </mxCell>
        <mxCell id="124" value="1" style="strokeColor=#999999;" parent="1" vertex="1">
          <mxGeometry x="126.49999999999999" y="620.0000000000014" width="40" height="20" as="geometry" />
        </mxCell>
        <mxCell id="125" value="Login &amp; Register Page" style="align=left;strokeColor=#999999;" parent="1" vertex="1">
          <mxGeometry x="166.5" y="620.0000000000014" width="200" height="20" as="geometry" />
        </mxCell>
        <mxCell id="126" value="5 days" style="strokeColor=#999999;" parent="1" vertex="1">
          <mxGeometry x="446.5000000000017" y="620.0000000000014" width="80.00000000000028" height="20" as="geometry" />
        </mxCell>
        <mxCell id="127" value="19.03.23" style="strokeColor=#999999;" parent="1" vertex="1">
          <mxGeometry x="526.500000000002" y="620.0000000000014" width="80.00000000000028" height="20" as="geometry" />
        </mxCell>
        <mxCell id="128" value="24.03.23" style="strokeColor=#999999;" parent="1" vertex="1">
          <mxGeometry x="606.5000000000015" y="620.0000000000016" width="80.00000000000028" height="20" as="geometry" />
        </mxCell>
        <mxCell id="129" value="2" style="strokeColor=#999999;" parent="1" vertex="1">
          <mxGeometry x="126.49999999999972" y="640.0000000000018" width="40" height="20" as="geometry" />
        </mxCell>
        <mxCell id="130" value="Home Page" style="align=left;strokeColor=#999999;" parent="1" vertex="1">
          <mxGeometry x="166.49999999999972" y="640.0000000000018" width="200" height="20" as="geometry" />
        </mxCell>
        <mxCell id="131" value="5 days" style="strokeColor=#999999;" parent="1" vertex="1">
          <mxGeometry x="446.5000000000014" y="640.0000000000018" width="80.00000000000028" height="20" as="geometry" />
        </mxCell>
        <mxCell id="132" value="24.03.23" style="strokeColor=#999999;" parent="1" vertex="1">
          <mxGeometry x="526.5000000000018" y="640.0000000000018" width="80.00000000000028" height="20" as="geometry" />
        </mxCell>
        <mxCell id="133" value="29.03.23" style="strokeColor=#999999;" parent="1" vertex="1">
          <mxGeometry x="606.5000000000011" y="640.000000000002" width="80.00000000000028" height="20" as="geometry" />
        </mxCell>
        <mxCell id="134" value="3" style="strokeColor=#999999;fillColor=#FFFFFF" parent="1" vertex="1">
          <mxGeometry x="126.49999999999963" y="660.0000000000018" width="40" height="20" as="geometry" />
        </mxCell>
        <mxCell id="135" value="Book Page" style="align=left;strokeColor=#999999;fillColor=#FFFFFF" parent="1" vertex="1">
          <mxGeometry x="166.49999999999963" y="660.0000000000018" width="200" height="20" as="geometry" />
        </mxCell>
        <mxCell id="136" value="5 days" style="strokeColor=#999999;fillColor=#FFFFFF" parent="1" vertex="1">
          <mxGeometry x="446.50000000000136" y="660.0000000000018" width="80.00000000000028" height="20" as="geometry" />
        </mxCell>
        <mxCell id="137" value="29.03.23" style="strokeColor=#999999;fillColor=#FFFFFF" parent="1" vertex="1">
          <mxGeometry x="526.5000000000016" y="660.0000000000018" width="80.00000000000028" height="20" as="geometry" />
        </mxCell>
        <mxCell id="138" value="03.04.23" style="strokeColor=#999999;fillColor=#FFFFFF" parent="1" vertex="1">
          <mxGeometry x="606.5000000000011" y="660.000000000002" width="80.00000000000028" height="20" as="geometry" />
        </mxCell>
        <mxCell id="139" value="4" style="strokeColor=#999999;" parent="1" vertex="1">
          <mxGeometry x="126.49999999999962" y="680.000000000002" width="40" height="20" as="geometry" />
        </mxCell>
        <mxCell id="140" value="Shop Page" style="align=left;strokeColor=#999999;" parent="1" vertex="1">
          <mxGeometry x="166.4999999999996" y="680.000000000002" width="200" height="20" as="geometry" />
        </mxCell>
        <mxCell id="141" value="5 days" style="strokeColor=#999999;" parent="1" vertex="1">
          <mxGeometry x="446.50000000000136" y="680.000000000002" width="80.00000000000028" height="20" as="geometry" />
        </mxCell>
        <mxCell id="142" value="03.04.23" style="strokeColor=#999999;" parent="1" vertex="1">
          <mxGeometry x="526.5000000000016" y="680.000000000002" width="80.00000000000028" height="20" as="geometry" />
        </mxCell>
        <mxCell id="143" value="08.04.23" style="strokeColor=#999999;" parent="1" vertex="1">
          <mxGeometry x="606.5000000000011" y="680.0000000000023" width="80.00000000000028" height="20" as="geometry" />
        </mxCell>
        <mxCell id="144" value="5" style="strokeColor=#999999;" parent="1" vertex="1">
          <mxGeometry x="126.500000000001" y="700.0000000000023" width="40" height="20" as="geometry" />
        </mxCell>
        <mxCell id="145" value="Cart Page" style="align=left;strokeColor=#999999;" parent="1" vertex="1">
          <mxGeometry x="166.500000000001" y="700.0000000000023" width="200" height="20" as="geometry" />
        </mxCell>
        <mxCell id="146" value="3 days" style="strokeColor=#999999;" parent="1" vertex="1">
          <mxGeometry x="446.50000000000273" y="700.0000000000023" width="80.00000000000028" height="20" as="geometry" />
        </mxCell>
        <mxCell id="147" value="08.04.23" style="strokeColor=#999999;" parent="1" vertex="1">
          <mxGeometry x="526.500000000003" y="700.0000000000023" width="80.00000000000028" height="20" as="geometry" />
        </mxCell>
        <mxCell id="148" value="11.04.23" style="strokeColor=#999999;" parent="1" vertex="1">
          <mxGeometry x="606.5000000000025" y="700.0000000000025" width="80.00000000000028" height="20" as="geometry" />
        </mxCell>
        <mxCell id="149" value="6" style="strokeColor=#999999;" parent="1" vertex="1">
          <mxGeometry x="126.50000000000102" y="720.0000000000022" width="40" height="20" as="geometry" />
        </mxCell>
        <mxCell id="150" value="Checkout Page" style="align=left;strokeColor=#999999;" parent="1" vertex="1">
          <mxGeometry x="166.50000000000102" y="720.0000000000022" width="200" height="20" as="geometry" />
        </mxCell>
        <mxCell id="151" value="3 days" style="strokeColor=#999999;" parent="1" vertex="1">
          <mxGeometry x="446.50000000000273" y="720.000000000002" width="80.00000000000028" height="20" as="geometry" />
        </mxCell>
        <mxCell id="152" value="11.04.23" style="strokeColor=#999999;" parent="1" vertex="1">
          <mxGeometry x="526.500000000003" y="720.000000000002" width="80.00000000000028" height="20" as="geometry" />
        </mxCell>
        <mxCell id="153" value="14.04.23" style="strokeColor=#999999;" parent="1" vertex="1">
          <mxGeometry x="606.5000000000025" y="720.0000000000024" width="80.00000000000028" height="20" as="geometry" />
        </mxCell>
        <mxCell id="154" value="D" style="strokeColor=#999999;fillColor=#DEEDFF;" parent="1" vertex="1">
          <mxGeometry x="126.50000000000074" y="740.0000000000025" width="40" height="20" as="geometry" />
        </mxCell>
        <mxCell id="155" value="Database - Model" style="align=left;strokeColor=#999999;fillColor=#DEEDFF;" parent="1" vertex="1">
          <mxGeometry x="166.50000000000074" y="740.0000000000025" width="200" height="20" as="geometry" />
        </mxCell>
        <mxCell id="156" value="4 days" style="strokeColor=#999999;fillColor=#DEEDFF;" parent="1" vertex="1">
          <mxGeometry x="446.50000000000244" y="740.0000000000025" width="80.00000000000028" height="20" as="geometry" />
        </mxCell>
        <mxCell id="157" value="14.04.23" style="strokeColor=#999999;fillColor=#DEEDFF;" parent="1" vertex="1">
          <mxGeometry x="526.5000000000027" y="740.0000000000025" width="80.00000000000028" height="20" as="geometry" />
        </mxCell>
        <mxCell id="158" value="18.04.23" style="strokeColor=#999999;fillColor=#DEEDFF;" parent="1" vertex="1">
          <mxGeometry x="606.5000000000023" y="740.0000000000027" width="80.00000000000028" height="20" as="geometry" />
        </mxCell>
        <mxCell id="159" value="1" style="strokeColor=#999999;" parent="1" vertex="1">
          <mxGeometry x="126.50000000000065" y="760.0000000000025" width="40" height="20" as="geometry" />
        </mxCell>
        <mxCell id="160" value="Implement Models" style="align=left;strokeColor=#999999;" parent="1" vertex="1">
          <mxGeometry x="166.50000000000065" y="760.0000000000025" width="200" height="20" as="geometry" />
        </mxCell>
        <mxCell id="161" value="4 days" style="strokeColor=#999999;" parent="1" vertex="1">
          <mxGeometry x="446.5000000000024" y="760.0000000000025" width="80.00000000000028" height="20" as="geometry" />
        </mxCell>
        <mxCell id="162" value="13.04.23" style="strokeColor=#999999;" parent="1" vertex="1">
          <mxGeometry x="526.5000000000027" y="760.0000000000025" width="80.00000000000028" height="20" as="geometry" />
        </mxCell>
        <mxCell id="163" value="17.04.23" style="strokeColor=#999999;" parent="1" vertex="1">
          <mxGeometry x="606.5000000000023" y="760.0000000000027" width="80.00000000000028" height="20" as="geometry" />
        </mxCell>
        <mxCell id="164" value="E" style="strokeColor=#999999;fillColor=#DEEDFF;" parent="1" vertex="1">
          <mxGeometry x="126.50000000000065" y="780.0000000000028" width="40" height="20" as="geometry" />
        </mxCell>
        <mxCell id="165" value="Backend - Controller" style="align=left;strokeColor=#999999;fillColor=#dae8fc;" parent="1" vertex="1">
          <mxGeometry x="166.50000000000065" y="780.0000000000028" width="200" height="20" as="geometry" />
        </mxCell>
        <mxCell id="166" value="20 days" style="strokeColor=#999999;fillColor=#DEEDFF;" parent="1" vertex="1">
          <mxGeometry x="446.5000000000024" y="780.0000000000027" width="80.00000000000028" height="20" as="geometry" />
        </mxCell>
        <mxCell id="167" value="18.04.23" style="strokeColor=#999999;fillColor=#DEEDFF;" parent="1" vertex="1">
          <mxGeometry x="526.5000000000027" y="780.0000000000027" width="80.00000000000028" height="20" as="geometry" />
        </mxCell>
        <mxCell id="168" value="08.05.23" style="strokeColor=#999999;fillColor=#DEEDFF;" parent="1" vertex="1">
          <mxGeometry x="606.5000000000023" y="780.0000000000031" width="80.00000000000028" height="20" as="geometry" />
        </mxCell>
        <mxCell id="169" value="1" style="strokeColor=#999999;" parent="1" vertex="1">
          <mxGeometry x="126.50000000000136" y="800.0000000000031" width="40" height="20" as="geometry" />
        </mxCell>
        <mxCell id="170" value="AccessPageController" style="align=left;strokeColor=#999999;" parent="1" vertex="1">
          <mxGeometry x="166.50000000000136" y="800.0000000000031" width="200" height="20" as="geometry" />
        </mxCell>
        <mxCell id="171" value="4 days" style="strokeColor=#999999;" parent="1" vertex="1">
          <mxGeometry x="446.5000000000031" y="800.000000000003" width="80.00000000000028" height="20" as="geometry" />
        </mxCell>
        <mxCell id="172" value="18.04.23" style="strokeColor=#999999;" parent="1" vertex="1">
          <mxGeometry x="526.5000000000034" y="800.000000000003" width="80.00000000000028" height="20" as="geometry" />
        </mxCell>
        <mxCell id="173" value="22.04.23" style="strokeColor=#999999;" parent="1" vertex="1">
          <mxGeometry x="606.500000000003" y="800.0000000000033" width="80.00000000000028" height="20" as="geometry" />
        </mxCell>
        <mxCell id="174" value="2" style="strokeColor=#999999;" parent="1" vertex="1">
          <mxGeometry x="126.50000000000139" y="820.000000000003" width="40" height="20" as="geometry" />
        </mxCell>
        <mxCell id="175" value="HomePageController" style="align=left;strokeColor=#999999;" parent="1" vertex="1">
          <mxGeometry x="166.5000000000014" y="820.000000000003" width="200" height="20" as="geometry" />
        </mxCell>
        <mxCell id="176" value="5 days" style="strokeColor=#999999;" parent="1" vertex="1">
          <mxGeometry x="446.5000000000031" y="820.000000000003" width="80.00000000000028" height="20" as="geometry" />
        </mxCell>
        <mxCell id="177" value="22.04.23" style="strokeColor=#999999;" parent="1" vertex="1">
          <mxGeometry x="526.5000000000034" y="820.000000000003" width="80.00000000000028" height="20" as="geometry" />
        </mxCell>
        <mxCell id="178" value="27.04.23" style="strokeColor=#999999;" parent="1" vertex="1">
          <mxGeometry x="606.500000000003" y="820.0000000000032" width="80.00000000000028" height="20" as="geometry" />
        </mxCell>
        <mxCell id="179" value="3" style="strokeColor=#999999;" parent="1" vertex="1">
          <mxGeometry x="126.50000000000111" y="840.0000000000034" width="40" height="20" as="geometry" />
        </mxCell>
        <mxCell id="180" value="BookPageController" style="align=left;strokeColor=#999999;" parent="1" vertex="1">
          <mxGeometry x="166.5000000000011" y="840.0000000000034" width="200" height="20" as="geometry" />
        </mxCell>
        <mxCell id="181" value="3 days" style="strokeColor=#999999;" parent="1" vertex="1">
          <mxGeometry x="446.50000000000284" y="840.0000000000033" width="80.00000000000028" height="20" as="geometry" />
        </mxCell>
        <mxCell id="182" value="27.04.23" style="strokeColor=#999999;" parent="1" vertex="1">
          <mxGeometry x="526.5000000000032" y="840.0000000000033" width="80.00000000000028" height="20" as="geometry" />
        </mxCell>
        <mxCell id="183" value="30.04.23" style="strokeColor=#999999;" parent="1" vertex="1">
          <mxGeometry x="606.5000000000026" y="840.0000000000036" width="80.00000000000028" height="20" as="geometry" />
        </mxCell>
        <mxCell id="184" value="4" style="strokeColor=#999999;" parent="1" vertex="1">
          <mxGeometry x="126.50000000000102" y="860.0000000000034" width="40" height="20" as="geometry" />
        </mxCell>
        <mxCell id="185" value="ShopPageController" style="align=left;strokeColor=#999999;" parent="1" vertex="1">
          <mxGeometry x="166.50000000000102" y="860.0000000000034" width="200" height="20" as="geometry" />
        </mxCell>
        <mxCell id="186" value="3 days" style="strokeColor=#999999;" parent="1" vertex="1">
          <mxGeometry x="446.5000000000028" y="860.0000000000033" width="80.00000000000028" height="20" as="geometry" />
        </mxCell>
        <mxCell id="187" value="30.04.23" style="strokeColor=#999999;" parent="1" vertex="1">
          <mxGeometry x="526.5000000000031" y="860.0000000000033" width="80.00000000000028" height="20" as="geometry" />
        </mxCell>
        <mxCell id="188" value="03.05.23" style="strokeColor=#999999;" parent="1" vertex="1">
          <mxGeometry x="606.5000000000026" y="860.0000000000036" width="80.00000000000028" height="20" as="geometry" />
        </mxCell>
        <mxCell id="189" value="5" style="strokeColor=#999999;" parent="1" vertex="1">
          <mxGeometry x="126.50000000000102" y="880.0000000000036" width="40" height="20" as="geometry" />
        </mxCell>
        <mxCell id="190" value="CartPageController" style="align=left;strokeColor=#999999;" parent="1" vertex="1">
          <mxGeometry x="166.500000000001" y="880.0000000000036" width="200" height="20" as="geometry" />
        </mxCell>
        <mxCell id="191" value="3 days" style="strokeColor=#999999;" parent="1" vertex="1">
          <mxGeometry x="446.5000000000028" y="880.0000000000035" width="80.00000000000028" height="20" as="geometry" />
        </mxCell>
        <mxCell id="192" value="03.05.23" style="strokeColor=#999999;" parent="1" vertex="1">
          <mxGeometry x="526.5000000000031" y="880.0000000000035" width="80.00000000000028" height="20" as="geometry" />
        </mxCell>
        <mxCell id="193" value="06.05.23" style="strokeColor=#999999;" parent="1" vertex="1">
          <mxGeometry x="606.5000000000026" y="880.0000000000039" width="80.00000000000028" height="20" as="geometry" />
        </mxCell>
        <mxCell id="194" value="" style="strokeColor=#999999;fillColor=#CCE5FF;" parent="1" vertex="1">
          <mxGeometry x="706.5" y="380" width="20" height="660" as="geometry" />
        </mxCell>
        <mxCell id="195" value="" style="strokeColor=#999999;fillColor=#CCE5FF;" parent="1" vertex="1">
          <mxGeometry x="726.5" y="380" width="20" height="660" as="geometry" />
        </mxCell>
        <mxCell id="196" value="" style="strokeColor=#999999;" parent="1" vertex="1">
          <mxGeometry x="746.5" y="380" width="20" height="660" as="geometry" />
        </mxCell>
        <mxCell id="197" value="" style="strokeColor=#999999;" parent="1" vertex="1">
          <mxGeometry x="766.5" y="380" width="20" height="660" as="geometry" />
        </mxCell>
        <mxCell id="198" value="" style="strokeColor=#999999;fillColor=default;" parent="1" vertex="1">
          <mxGeometry x="786.5" y="380" width="20" height="660" as="geometry" />
        </mxCell>
        <mxCell id="199" value="" style="strokeColor=#999999;fillColor=default;" parent="1" vertex="1">
          <mxGeometry x="806.5" y="380" width="20" height="660" as="geometry" />
        </mxCell>
        <mxCell id="200" value="" style="strokeColor=#999999;" parent="1" vertex="1">
          <mxGeometry x="826.5" y="380" width="20" height="660" as="geometry" />
        </mxCell>
        <mxCell id="201" value="" style="strokeColor=#999999;fillColor=#CCE5FF;" parent="1" vertex="1">
          <mxGeometry x="846.5" y="380" width="20" height="660" as="geometry" />
        </mxCell>
        <mxCell id="202" value="" style="strokeColor=#999999;fillColor=#CCE5FF;" parent="1" vertex="1">
          <mxGeometry x="866.5" y="380" width="20" height="660" as="geometry" />
        </mxCell>
        <mxCell id="203" value="" style="strokeColor=#999999;" parent="1" vertex="1">
          <mxGeometry x="886.5" y="380" width="20" height="660" as="geometry" />
        </mxCell>
        <mxCell id="204" value="" style="strokeColor=#999999;" parent="1" vertex="1">
          <mxGeometry x="906.5" y="380" width="20" height="660" as="geometry" />
        </mxCell>
        <mxCell id="205" value="" style="strokeColor=#999999;fillColor=default;" parent="1" vertex="1">
          <mxGeometry x="926.5" y="380" width="20" height="660" as="geometry" />
        </mxCell>
        <mxCell id="206" value="" style="strokeColor=#999999;fillColor=default;" parent="1" vertex="1">
          <mxGeometry x="946.5" y="380" width="20" height="660" as="geometry" />
        </mxCell>
        <mxCell id="207" value="" style="strokeColor=#999999;" parent="1" vertex="1">
          <mxGeometry x="966.5" y="380" width="20" height="660" as="geometry" />
        </mxCell>
        <mxCell id="208" value="" style="strokeColor=#999999;fillColor=#CCE5FF;" parent="1" vertex="1">
          <mxGeometry x="986.5" y="380" width="20" height="660" as="geometry" />
        </mxCell>
        <mxCell id="209" value="" style="strokeColor=#999999;fillColor=#CCE5FF;" parent="1" vertex="1">
          <mxGeometry x="1006.5" y="380" width="20" height="660" as="geometry" />
        </mxCell>
        <mxCell id="210" value="" style="strokeColor=#999999;" parent="1" vertex="1">
          <mxGeometry x="1026.5" y="380" width="20" height="660" as="geometry" />
        </mxCell>
        <mxCell id="211" value="" style="strokeColor=#999999;" parent="1" vertex="1">
          <mxGeometry x="1046.5" y="380" width="20" height="660" as="geometry" />
        </mxCell>
        <mxCell id="212" value="" style="strokeColor=#999999;fillColor=default;" parent="1" vertex="1">
          <mxGeometry x="1066.5" y="380" width="20" height="660" as="geometry" />
        </mxCell>
        <mxCell id="213" value="" style="strokeColor=#999999;fillColor=default;" parent="1" vertex="1">
          <mxGeometry x="1086.5" y="380" width="20" height="660" as="geometry" />
        </mxCell>
        <mxCell id="214" value="" style="strokeColor=#999999;" parent="1" vertex="1">
          <mxGeometry x="1106.5" y="380" width="20" height="660" as="geometry" />
        </mxCell>
        <mxCell id="215" value="" style="strokeColor=#999999;fillColor=#CCE5FF;" parent="1" vertex="1">
          <mxGeometry x="1126.5" y="380" width="20" height="660" as="geometry" />
        </mxCell>
        <mxCell id="216" value="" style="strokeColor=#999999;fillColor=#CCE5FF;" parent="1" vertex="1">
          <mxGeometry x="1146.5" y="380" width="20" height="660" as="geometry" />
        </mxCell>
        <mxCell id="217" value="" style="strokeColor=#999999;" parent="1" vertex="1">
          <mxGeometry x="1166.5" y="380" width="20" height="660" as="geometry" />
        </mxCell>
        <mxCell id="218" value="" style="strokeColor=#999999;" parent="1" vertex="1">
          <mxGeometry x="1186.5" y="380" width="20" height="660" as="geometry" />
        </mxCell>
        <mxCell id="219" value="" style="strokeColor=#999999;fillColor=default;" parent="1" vertex="1">
          <mxGeometry x="1206.5" y="380" width="20" height="660" as="geometry" />
        </mxCell>
        <mxCell id="220" value="" style="strokeColor=#999999;fillColor=default;" parent="1" vertex="1">
          <mxGeometry x="1226.5" y="380" width="20" height="660" as="geometry" />
        </mxCell>
        <mxCell id="221" value="" style="strokeColor=#999999;" parent="1" vertex="1">
          <mxGeometry x="1246.5" y="380" width="20" height="660" as="geometry" />
        </mxCell>
        <mxCell id="222" value="" style="strokeColor=#999999;fillColor=#CCE5FF;" parent="1" vertex="1">
          <mxGeometry x="1266.5" y="380" width="20" height="660" as="geometry" />
        </mxCell>
        <mxCell id="223" value="" style="strokeColor=#999999;fillColor=#CCE5FF;" parent="1" vertex="1">
          <mxGeometry x="1286.5" y="380" width="20" height="660" as="geometry" />
        </mxCell>
        <mxCell id="224" value="" style="strokeColor=#999999;" parent="1" vertex="1">
          <mxGeometry x="1306.5" y="380" width="20" height="660" as="geometry" />
        </mxCell>
        <mxCell id="225" value="" style="strokeColor=#999999;" parent="1" vertex="1">
          <mxGeometry x="1326.5" y="380" width="20" height="660" as="geometry" />
        </mxCell>
        <mxCell id="226" value="" style="strokeColor=#999999;fillColor=default;" parent="1" vertex="1">
          <mxGeometry x="1346.5" y="380" width="20" height="660" as="geometry" />
        </mxCell>
        <mxCell id="227" value="" style="strokeColor=#999999;fillColor=default;" parent="1" vertex="1">
          <mxGeometry x="1366.5" y="380" width="20" height="660" as="geometry" />
        </mxCell>
        <mxCell id="228" value="" style="strokeColor=#999999;" parent="1" vertex="1">
          <mxGeometry x="1386.5" y="380" width="20" height="660" as="geometry" />
        </mxCell>
        <mxCell id="229" value="" style="strokeColor=#999999;fillColor=#CCE5FF;" parent="1" vertex="1">
          <mxGeometry x="1406.5" y="380" width="20" height="660" as="geometry" />
        </mxCell>
        <mxCell id="230" value="" style="strokeColor=#999999;fillColor=#CCE5FF;" parent="1" vertex="1">
          <mxGeometry x="1426.5" y="380" width="20" height="660" as="geometry" />
        </mxCell>
        <mxCell id="231" value="" style="strokeColor=#999999;" parent="1" vertex="1">
          <mxGeometry x="1446.5" y="380" width="20" height="660" as="geometry" />
        </mxCell>
        <mxCell id="232" value="" style="strokeColor=#999999;" parent="1" vertex="1">
          <mxGeometry x="1466.5" y="380" width="20" height="660" as="geometry" />
        </mxCell>
        <mxCell id="233" value="" style="strokeColor=#999999;fillColor=default;" parent="1" vertex="1">
          <mxGeometry x="1486.5" y="380" width="20" height="660" as="geometry" />
        </mxCell>
        <mxCell id="234" value="" style="strokeColor=#999999;fillColor=default;" parent="1" vertex="1">
          <mxGeometry x="1506.5" y="380" width="20" height="660" as="geometry" />
        </mxCell>
        <mxCell id="235" value="" style="strokeColor=#999999;" parent="1" vertex="1">
          <mxGeometry x="1526.5" y="380" width="20" height="660" as="geometry" />
        </mxCell>
        <mxCell id="236" value="" style="strokeColor=#999999;fillColor=#CCE5FF;" parent="1" vertex="1">
          <mxGeometry x="1546.5" y="380" width="20" height="660" as="geometry" />
        </mxCell>
        <mxCell id="237" value="" style="strokeColor=#999999;fillColor=#CCE5FF;" parent="1" vertex="1">
          <mxGeometry x="1566.5" y="380" width="20" height="660" as="geometry" />
        </mxCell>
        <mxCell id="238" value="" style="strokeColor=#999999;" parent="1" vertex="1">
          <mxGeometry x="1586.5" y="380" width="20" height="660" as="geometry" />
        </mxCell>
        <mxCell id="239" value="" style="strokeColor=#999999;" parent="1" vertex="1">
          <mxGeometry x="1606.5" y="380" width="20" height="660" as="geometry" />
        </mxCell>
        <mxCell id="240" value="" style="strokeColor=#999999;fillColor=default;" parent="1" vertex="1">
          <mxGeometry x="1626.5" y="380" width="20" height="660" as="geometry" />
        </mxCell>
        <mxCell id="241" value="" style="strokeColor=#999999;fillColor=default;" parent="1" vertex="1">
          <mxGeometry x="1646.5" y="380" width="20" height="660" as="geometry" />
        </mxCell>
        <mxCell id="2" value="Task Name" style="fillColor=#23445D;strokeColor=#999999;strokeWidth=2;fontColor=#FFFFFF;fontStyle=1" parent="1" vertex="1">
          <mxGeometry x="166.5" y="340" width="200" height="40" as="geometry" />
        </mxCell>
        <mxCell id="3" value="" style="fillColor=#23445D;strokeColor=#999999;strokeWidth=2;fontColor=#FFFFFF;fontStyle=1" parent="1" vertex="1">
          <mxGeometry x="126.5" y="340" width="40" height="40" as="geometry" />
        </mxCell>
        <mxCell id="4" value="Week 1" style="fillColor=#23445D;strokeColor=#999999;strokeWidth=2;fontColor=#FFFFFF;fontStyle=1" parent="1" vertex="1">
          <mxGeometry x="686.5" y="340" width="63.5" height="20" as="geometry" />
        </mxCell>
        <mxCell id="5" value="F" style="fillColor=#23445D;strokeColor=#999999;strokeWidth=2;fontColor=#FFFFFF;fontStyle=1" parent="1" vertex="1">
          <mxGeometry x="686.5000000000018" y="360.0000000000001" width="20" height="20" as="geometry" />
        </mxCell>
        <mxCell id="6" value="S" style="fillColor=#23445D;strokeColor=#999999;strokeWidth=2;fontColor=#FFFFFF;fontStyle=1" parent="1" vertex="1">
          <mxGeometry x="706.5000000000018" y="360.0000000000001" width="20" height="20" as="geometry" />
        </mxCell>
        <mxCell id="7" value="S" style="fillColor=#23445D;strokeColor=#999999;strokeWidth=2;fontColor=#FFFFFF;fontStyle=1" parent="1" vertex="1">
          <mxGeometry x="726.5000000000018" y="360.0000000000001" width="20" height="20" as="geometry" />
        </mxCell>
        <mxCell id="12" value="Duration" style="fillColor=#23445D;strokeColor=#999999;strokeWidth=2;fontColor=#FFFFFF;fontStyle=1" parent="1" vertex="1">
          <mxGeometry x="446.50000000000176" y="340.00000000000006" width="80.00000000000006" height="40.00000000000001" as="geometry" />
        </mxCell>
        <mxCell id="13" value="Start" style="fillColor=#23445D;strokeColor=#999999;strokeWidth=2;fontColor=#FFFFFF;fontStyle=1" parent="1" vertex="1">
          <mxGeometry x="526.5000000000018" y="340.00000000000006" width="80.00000000000006" height="40.00000000000001" as="geometry" />
        </mxCell>
        <mxCell id="14" value="ETA" style="fillColor=#23445D;strokeColor=#999999;strokeWidth=2;fontColor=#FFFFFF;fontStyle=1" parent="1" vertex="1">
          <mxGeometry x="606.5000000000019" y="340.0000000000001" width="80.00000000000006" height="40.00000000000001" as="geometry" />
        </mxCell>
        <mxCell id="15" value="Week 2" style="fillColor=#23445D;strokeColor=#999999;strokeWidth=2;fontColor=#FFFFFF;fontStyle=1" parent="1" vertex="1">
          <mxGeometry x="745.5000000000018" y="340.0000000000001" width="140" height="20" as="geometry" />
        </mxCell>
        <mxCell id="16" value="M" style="fillColor=#23445D;strokeColor=#999999;strokeWidth=2;fontColor=#FFFFFF;fontStyle=1" parent="1" vertex="1">
          <mxGeometry x="745.5000000000018" y="360.0000000000001" width="20" height="20" as="geometry" />
        </mxCell>
        <mxCell id="17" value="T" style="fillColor=#23445D;strokeColor=#999999;strokeWidth=2;fontColor=#FFFFFF;fontStyle=1" parent="1" vertex="1">
          <mxGeometry x="765.5000000000018" y="360.0000000000001" width="20" height="20" as="geometry" />
        </mxCell>
        <mxCell id="18" value="W" style="fillColor=#23445D;strokeColor=#999999;strokeWidth=2;fontColor=#FFFFFF;fontStyle=1" parent="1" vertex="1">
          <mxGeometry x="785.5000000000018" y="360.0000000000001" width="20" height="20" as="geometry" />
        </mxCell>
        <mxCell id="19" value="T" style="fillColor=#23445D;strokeColor=#999999;strokeWidth=2;fontColor=#FFFFFF;fontStyle=1" parent="1" vertex="1">
          <mxGeometry x="805.5000000000018" y="360.0000000000001" width="20" height="20" as="geometry" />
        </mxCell>
        <mxCell id="20" value="F" style="fillColor=#23445D;strokeColor=#999999;strokeWidth=2;fontColor=#FFFFFF;fontStyle=1" parent="1" vertex="1">
          <mxGeometry x="825.5000000000016" y="360.0000000000001" width="20" height="20" as="geometry" />
        </mxCell>
        <mxCell id="21" value="S" style="fillColor=#23445D;strokeColor=#999999;strokeWidth=2;fontColor=#FFFFFF;fontStyle=1" parent="1" vertex="1">
          <mxGeometry x="845.5000000000016" y="360.0000000000001" width="20" height="20" as="geometry" />
        </mxCell>
        <mxCell id="22" value="S" style="fillColor=#23445D;strokeColor=#999999;strokeWidth=2;fontColor=#FFFFFF;fontStyle=1" parent="1" vertex="1">
          <mxGeometry x="865.5000000000016" y="360.0000000000001" width="20" height="20" as="geometry" />
        </mxCell>
        <mxCell id="23" value="Week 3" style="fillColor=#23445D;strokeColor=#999999;strokeWidth=2;fontColor=#FFFFFF;fontStyle=1" parent="1" vertex="1">
          <mxGeometry x="885.5000000000018" y="340.00000000000006" width="140" height="20" as="geometry" />
        </mxCell>
        <mxCell id="24" value="M" style="fillColor=#23445D;strokeColor=#999999;strokeWidth=2;fontColor=#FFFFFF;fontStyle=1" parent="1" vertex="1">
          <mxGeometry x="885.5000000000018" y="360.00000000000006" width="20" height="20" as="geometry" />
        </mxCell>
        <mxCell id="25" value="T" style="fillColor=#23445D;strokeColor=#999999;strokeWidth=2;fontColor=#FFFFFF;fontStyle=1" parent="1" vertex="1">
          <mxGeometry x="905.5000000000018" y="360.00000000000006" width="20" height="20" as="geometry" />
        </mxCell>
        <mxCell id="26" value="W" style="fillColor=#23445D;strokeColor=#999999;strokeWidth=2;fontColor=#FFFFFF;fontStyle=1" parent="1" vertex="1">
          <mxGeometry x="925.5000000000018" y="360.00000000000006" width="20" height="20" as="geometry" />
        </mxCell>
        <mxCell id="27" value="T" style="fillColor=#23445D;strokeColor=#999999;strokeWidth=2;fontColor=#FFFFFF;fontStyle=1" parent="1" vertex="1">
          <mxGeometry x="945.5000000000018" y="360.00000000000006" width="20" height="20" as="geometry" />
        </mxCell>
        <mxCell id="28" value="F" style="fillColor=#23445D;strokeColor=#999999;strokeWidth=2;fontColor=#FFFFFF;fontStyle=1" parent="1" vertex="1">
          <mxGeometry x="965.5000000000016" y="360.00000000000006" width="20" height="20" as="geometry" />
        </mxCell>
        <mxCell id="29" value="S" style="fillColor=#23445D;strokeColor=#999999;strokeWidth=2;fontColor=#FFFFFF;fontStyle=1" parent="1" vertex="1">
          <mxGeometry x="985.5000000000016" y="360.00000000000006" width="20" height="20" as="geometry" />
        </mxCell>
        <mxCell id="30" value="S" style="fillColor=#23445D;strokeColor=#999999;strokeWidth=2;fontColor=#FFFFFF;fontStyle=1" parent="1" vertex="1">
          <mxGeometry x="1005.5000000000016" y="360.00000000000006" width="20" height="20" as="geometry" />
        </mxCell>
        <mxCell id="31" value="Week 4" style="fillColor=#23445D;strokeColor=#999999;strokeWidth=2;fontColor=#FFFFFF;fontStyle=1" parent="1" vertex="1">
          <mxGeometry x="1025.5000000000018" y="340.00000000000006" width="140" height="20" as="geometry" />
        </mxCell>
        <mxCell id="32" value="M" style="fillColor=#23445D;strokeColor=#999999;strokeWidth=2;fontColor=#FFFFFF;fontStyle=1" parent="1" vertex="1">
          <mxGeometry x="1025.5000000000018" y="360.00000000000006" width="20" height="20" as="geometry" />
        </mxCell>
        <mxCell id="33" value="T" style="fillColor=#23445D;strokeColor=#999999;strokeWidth=2;fontColor=#FFFFFF;fontStyle=1" parent="1" vertex="1">
          <mxGeometry x="1045.5000000000018" y="360.00000000000006" width="20" height="20" as="geometry" />
        </mxCell>
        <mxCell id="34" value="W" style="fillColor=#23445D;strokeColor=#999999;strokeWidth=2;fontColor=#FFFFFF;fontStyle=1" parent="1" vertex="1">
          <mxGeometry x="1065.5000000000018" y="360.00000000000006" width="20" height="20" as="geometry" />
        </mxCell>
        <mxCell id="35" value="T" style="fillColor=#23445D;strokeColor=#999999;strokeWidth=2;fontColor=#FFFFFF;fontStyle=1" parent="1" vertex="1">
          <mxGeometry x="1085.5000000000018" y="360.00000000000006" width="20" height="20" as="geometry" />
        </mxCell>
        <mxCell id="36" value="F" style="fillColor=#23445D;strokeColor=#999999;strokeWidth=2;fontColor=#FFFFFF;fontStyle=1" parent="1" vertex="1">
          <mxGeometry x="1105.5000000000016" y="360" width="20" height="20" as="geometry" />
        </mxCell>
        <mxCell id="37" value="S" style="fillColor=#23445D;strokeColor=#999999;strokeWidth=2;fontColor=#FFFFFF;fontStyle=1" parent="1" vertex="1">
          <mxGeometry x="1125.5000000000016" y="360" width="20" height="20" as="geometry" />
        </mxCell>
        <mxCell id="38" value="S" style="fillColor=#23445D;strokeColor=#999999;strokeWidth=2;fontColor=#FFFFFF;fontStyle=1" parent="1" vertex="1">
          <mxGeometry x="1145.5000000000016" y="360" width="20" height="20" as="geometry" />
        </mxCell>
        <mxCell id="39" value="Week 5" style="fillColor=#23445D;strokeColor=#999999;strokeWidth=2;fontColor=#FFFFFF;fontStyle=1" parent="1" vertex="1">
          <mxGeometry x="1165.5000000000018" y="340.00000000000006" width="140" height="20" as="geometry" />
        </mxCell>
        <mxCell id="40" value="M" style="fillColor=#23445D;strokeColor=#999999;strokeWidth=2;fontColor=#FFFFFF;fontStyle=1" parent="1" vertex="1">
          <mxGeometry x="1165.5000000000018" y="360.00000000000006" width="20" height="20" as="geometry" />
        </mxCell>
        <mxCell id="41" value="T" style="fillColor=#23445D;strokeColor=#999999;strokeWidth=2;fontColor=#FFFFFF;fontStyle=1" parent="1" vertex="1">
          <mxGeometry x="1185.5000000000018" y="360.00000000000006" width="20" height="20" as="geometry" />
        </mxCell>
        <mxCell id="42" value="W" style="fillColor=#23445D;strokeColor=#999999;strokeWidth=2;fontColor=#FFFFFF;fontStyle=1" parent="1" vertex="1">
          <mxGeometry x="1205.5000000000018" y="360.00000000000006" width="20" height="20" as="geometry" />
        </mxCell>
        <mxCell id="43" value="T" style="fillColor=#23445D;strokeColor=#999999;strokeWidth=2;fontColor=#FFFFFF;fontStyle=1" parent="1" vertex="1">
          <mxGeometry x="1225.5000000000018" y="360.00000000000006" width="20" height="20" as="geometry" />
        </mxCell>
        <mxCell id="44" value="F" style="fillColor=#23445D;strokeColor=#999999;strokeWidth=2;fontColor=#FFFFFF;fontStyle=1" parent="1" vertex="1">
          <mxGeometry x="1245.5000000000016" y="360" width="20" height="20" as="geometry" />
        </mxCell>
        <mxCell id="45" value="S" style="fillColor=#23445D;strokeColor=#999999;strokeWidth=2;fontColor=#FFFFFF;fontStyle=1" parent="1" vertex="1">
          <mxGeometry x="1265.5000000000016" y="360" width="20" height="20" as="geometry" />
        </mxCell>
        <mxCell id="46" value="S" style="fillColor=#23445D;strokeColor=#999999;strokeWidth=2;fontColor=#FFFFFF;fontStyle=1" parent="1" vertex="1">
          <mxGeometry x="1285.5000000000016" y="360" width="20" height="20" as="geometry" />
        </mxCell>
        <mxCell id="47" value="Week 6" style="fillColor=#23445D;strokeColor=#999999;strokeWidth=2;fontColor=#FFFFFF;fontStyle=1" parent="1" vertex="1">
          <mxGeometry x="1305.5000000000018" y="340" width="140" height="20" as="geometry" />
        </mxCell>
        <mxCell id="48" value="M" style="fillColor=#23445D;strokeColor=#999999;strokeWidth=2;fontColor=#FFFFFF;fontStyle=1" parent="1" vertex="1">
          <mxGeometry x="1305.5000000000018" y="360" width="20" height="20" as="geometry" />
        </mxCell>
        <mxCell id="49" value="T" style="fillColor=#23445D;strokeColor=#999999;strokeWidth=2;fontColor=#FFFFFF;fontStyle=1" parent="1" vertex="1">
          <mxGeometry x="1325.5000000000018" y="360" width="20" height="20" as="geometry" />
        </mxCell>
        <mxCell id="50" value="W" style="fillColor=#23445D;strokeColor=#999999;strokeWidth=2;fontColor=#FFFFFF;fontStyle=1" parent="1" vertex="1">
          <mxGeometry x="1345.5000000000018" y="360" width="20" height="20" as="geometry" />
        </mxCell>
        <mxCell id="51" value="T" style="fillColor=#23445D;strokeColor=#999999;strokeWidth=2;fontColor=#FFFFFF;fontStyle=1" parent="1" vertex="1">
          <mxGeometry x="1365.5000000000018" y="360" width="20" height="20" as="geometry" />
        </mxCell>
        <mxCell id="52" value="F" style="fillColor=#23445D;strokeColor=#999999;strokeWidth=2;fontColor=#FFFFFF;fontStyle=1" parent="1" vertex="1">
          <mxGeometry x="1385.5000000000016" y="360" width="20" height="20" as="geometry" />
        </mxCell>
        <mxCell id="53" value="S" style="fillColor=#23445D;strokeColor=#999999;strokeWidth=2;fontColor=#FFFFFF;fontStyle=1" parent="1" vertex="1">
          <mxGeometry x="1405.5000000000016" y="360" width="20" height="20" as="geometry" />
        </mxCell>
        <mxCell id="54" value="S" style="fillColor=#23445D;strokeColor=#999999;strokeWidth=2;fontColor=#FFFFFF;fontStyle=1" parent="1" vertex="1">
          <mxGeometry x="1425.5000000000016" y="360" width="20" height="20" as="geometry" />
        </mxCell>
        <mxCell id="55" value="Week 7" style="fillColor=#23445D;strokeColor=#999999;strokeWidth=2;fontColor=#FFFFFF;fontStyle=1" parent="1" vertex="1">
          <mxGeometry x="1445.5000000000018" y="340.0000000000001" width="140" height="20" as="geometry" />
        </mxCell>
        <mxCell id="56" value="M" style="fillColor=#23445D;strokeColor=#999999;strokeWidth=2;fontColor=#FFFFFF;fontStyle=1" parent="1" vertex="1">
          <mxGeometry x="1445.5000000000018" y="360.0000000000001" width="20" height="20" as="geometry" />
        </mxCell>
        <mxCell id="57" value="T" style="fillColor=#23445D;strokeColor=#999999;strokeWidth=2;fontColor=#FFFFFF;fontStyle=1" parent="1" vertex="1">
          <mxGeometry x="1465.5000000000018" y="360.0000000000001" width="20" height="20" as="geometry" />
        </mxCell>
        <mxCell id="58" value="W" style="fillColor=#23445D;strokeColor=#999999;strokeWidth=2;fontColor=#FFFFFF;fontStyle=1" parent="1" vertex="1">
          <mxGeometry x="1485.5000000000018" y="360.0000000000001" width="20" height="20" as="geometry" />
        </mxCell>
        <mxCell id="59" value="T" style="fillColor=#23445D;strokeColor=#999999;strokeWidth=2;fontColor=#FFFFFF;fontStyle=1" parent="1" vertex="1">
          <mxGeometry x="1505.5000000000018" y="360.0000000000001" width="20" height="20" as="geometry" />
        </mxCell>
        <mxCell id="60" value="F" style="fillColor=#23445D;strokeColor=#999999;strokeWidth=2;fontColor=#FFFFFF;fontStyle=1" parent="1" vertex="1">
          <mxGeometry x="1525.5000000000016" y="360.0000000000001" width="20" height="20" as="geometry" />
        </mxCell>
        <mxCell id="61" value="S" style="fillColor=#23445D;strokeColor=#999999;strokeWidth=2;fontColor=#FFFFFF;fontStyle=1" parent="1" vertex="1">
          <mxGeometry x="1545.5000000000016" y="360.0000000000001" width="20" height="20" as="geometry" />
        </mxCell>
        <mxCell id="62" value="S" style="fillColor=#23445D;strokeColor=#999999;strokeWidth=2;fontColor=#FFFFFF;fontStyle=1" parent="1" vertex="1">
          <mxGeometry x="1565.5000000000016" y="360.0000000000001" width="20" height="20" as="geometry" />
        </mxCell>
        <mxCell id="243" value="" style="shape=mxgraph.arrows.bent_right_arrow;fillColor=#e51400;strokeColor=#B20000;strokeWidth=2;direction=south;fontColor=#ffffff;opacity=80;" parent="1" vertex="1">
          <mxGeometry x="706.500000000002" y="429.99999999999966" width="10.000000000000341" height="9.99999999999983" as="geometry" />
        </mxCell>
        <mxCell id="244" value="" style="shape=mxgraph.flowchart.process;fillColor=#e51400;strokeColor=#B20000;strokeWidth=2;opacity=80;fontColor=#ffffff;" parent="1" vertex="1">
          <mxGeometry x="686.5000000000032" y="419.9999999999997" width="19.999999999998863" height="19.99999999999983" as="geometry" />
        </mxCell>
        <mxCell id="245" value="" style="shape=mxgraph.flowchart.process;fillColor=#e51400;strokeColor=#B20000;strokeWidth=2;opacity=80;fontColor=#ffffff;" parent="1" vertex="1">
          <mxGeometry x="706.5000000000018" y="440.00000000000057" width="40.00000000000023" height="19.99999999999983" as="geometry" />
        </mxCell>
        <mxCell id="246" value="" style="shape=mxgraph.flowchart.process;fillColor=#e51400;strokeColor=#B20000;strokeWidth=2;opacity=80;fontColor=#ffffff;" parent="1" vertex="1">
          <mxGeometry x="746.5000000000018" y="460.00000000000085" width="19.999999999998863" height="19.99999999999983" as="geometry" />
        </mxCell>
        <mxCell id="247" value="" style="shape=mxgraph.flowchart.process;fillColor=#e51400;strokeColor=#B20000;strokeWidth=2;opacity=80;fontColor=#ffffff;" parent="1" vertex="1">
          <mxGeometry x="806.5" y="500" width="283.5" height="20" as="geometry" />
        </mxCell>
        <mxCell id="249" value="" style="shape=mxgraph.arrows.bent_right_arrow;fillColor=#e51400;strokeColor=#B20000;strokeWidth=2;direction=south;fontColor=#ffffff;opacity=80;" parent="1" vertex="1">
          <mxGeometry x="746.500000000001" y="449.99999999999943" width="10.000000000000341" height="9.99999999999983" as="geometry" />
        </mxCell>
        <mxCell id="250" value="" style="shape=mxgraph.arrows.bent_right_arrow;fillColor=#e51400;strokeColor=#B20000;strokeWidth=2;direction=south;fontColor=#ffffff;opacity=80;" parent="1" vertex="1">
          <mxGeometry x="766.5000000000007" y="470.0000000000001" width="10.000000000000341" height="9.99999999999983" as="geometry" />
        </mxCell>
        <mxCell id="252" value="" style="shape=mxgraph.flowchart.process;fillColor=#e51400;strokeColor=#B20000;strokeWidth=2;opacity=80;fontColor=#ffffff;" parent="1" vertex="1">
          <mxGeometry x="766.5" y="480" width="43.5" height="20" as="geometry" />
        </mxCell>
        <mxCell id="253" value="" style="shape=mxgraph.arrows.bent_right_arrow;fillColor=#e51400;strokeColor=#B20000;strokeWidth=2;direction=south;fontColor=#ffffff;opacity=80;" parent="1" vertex="1">
          <mxGeometry x="810.000000000002" y="489.99999999999983" width="10.000000000000341" height="9.99999999999983" as="geometry" />
        </mxCell>
        <mxCell id="255" value="" style="shape=mxgraph.flowchart.process;fillColor=#e51400;strokeColor=#B20000;strokeWidth=2;opacity=80;fontColor=#ffffff;" parent="1" vertex="1">
          <mxGeometry x="1087.5" y="540.0000000000016" width="40" height="19.99999999999983" as="geometry" />
        </mxCell>
        <mxCell id="256" value="" style="shape=mxgraph.flowchart.process;fillColor=#e51400;strokeColor=#B20000;strokeWidth=2;opacity=80;fontColor=#ffffff;" parent="1" vertex="1">
          <mxGeometry x="1087.5" y="520" width="223.5" height="20" as="geometry" />
        </mxCell>
        <mxCell id="257" value="" style="shape=mxgraph.flowchart.process;fillColor=#e51400;strokeColor=#B20000;strokeWidth=2;opacity=80;fontColor=#ffffff;" parent="1" vertex="1">
          <mxGeometry x="1126.5" y="560" width="103.5" height="20" as="geometry" />
        </mxCell>
        <mxCell id="258" value="" style="shape=mxgraph.flowchart.process;fillColor=#e51400;strokeColor=#B20000;strokeWidth=2;opacity=80;fontColor=#ffffff;" parent="1" vertex="1">
          <mxGeometry x="1227.5" y="580" width="83.5" height="20" as="geometry" />
        </mxCell>
        <mxCell id="259" value="" style="shape=mxgraph.flowchart.process;fillColor=#e51400;strokeColor=#B20000;strokeWidth=2;opacity=80;fontColor=#ffffff;" parent="1" vertex="1">
          <mxGeometry x="1306.5" y="620" width="103.5" height="20" as="geometry" />
        </mxCell>
        <mxCell id="260" value="" style="shape=mxgraph.flowchart.process;fillColor=#e51400;strokeColor=#B20000;strokeWidth=2;opacity=80;fontColor=#ffffff;" parent="1" vertex="1">
          <mxGeometry x="1405.5" y="640" width="103.5" height="20" as="geometry" />
        </mxCell>
        <mxCell id="261" value="" style="shape=mxgraph.flowchart.process;fillColor=#e51400;strokeColor=#B20000;strokeWidth=2;opacity=80;fontColor=#ffffff;" parent="1" vertex="1">
          <mxGeometry x="1506.75" y="660" width="103.5" height="20" as="geometry" />
        </mxCell>
        <mxCell id="269" value="" style="shape=mxgraph.arrows.bent_right_arrow;fillColor=#e51400;strokeColor=#B20000;strokeWidth=2;direction=south;fontColor=#ffffff;opacity=80;" parent="1" vertex="1">
          <mxGeometry x="1127.5000000000023" y="550.000000000002" width="10.000000000000341" height="9.99999999999983" as="geometry" />
        </mxCell>
        <mxCell id="270" value="" style="shape=mxgraph.arrows.bent_right_arrow;fillColor=#e51400;strokeColor=#B20000;strokeWidth=2;direction=south;fontColor=#ffffff;opacity=80;" parent="1" vertex="1">
          <mxGeometry x="1230.4999999999998" y="570.0000000000019" width="10.000000000000341" height="9.99999999999983" as="geometry" />
        </mxCell>
        <mxCell id="272" value="" style="shape=mxgraph.arrows.bent_right_arrow;fillColor=#e51400;strokeColor=#B20000;strokeWidth=2;direction=south;fontColor=#ffffff;opacity=80;" parent="1" vertex="1">
          <mxGeometry x="1409" y="630.0000000000368" width="10.000000000000341" height="9.99999999999983" as="geometry" />
        </mxCell>
        <mxCell id="273" value="" style="shape=mxgraph.arrows.bent_right_arrow;fillColor=#e51400;strokeColor=#B20000;strokeWidth=2;direction=south;fontColor=#ffffff;opacity=80;" parent="1" vertex="1">
          <mxGeometry x="1509" y="650.0000000000023" width="10.000000000000341" height="9.99999999999983" as="geometry" />
        </mxCell>
        <mxCell id="D42v3AOIPiJxgvPzYh7Y-278" value="6" style="strokeColor=#999999;" parent="1" vertex="1">
          <mxGeometry x="126.50000000000102" y="900.0000000000036" width="40" height="20" as="geometry" />
        </mxCell>
        <mxCell id="D42v3AOIPiJxgvPzYh7Y-279" value="CheckoutPageController" style="align=left;strokeColor=#999999;" parent="1" vertex="1">
          <mxGeometry x="166.500000000001" y="900.0000000000036" width="200" height="20" as="geometry" />
        </mxCell>
        <mxCell id="D42v3AOIPiJxgvPzYh7Y-280" value="2 days" style="strokeColor=#999999;" parent="1" vertex="1">
          <mxGeometry x="446.5000000000028" y="900.0000000000035" width="80.00000000000028" height="20" as="geometry" />
        </mxCell>
        <mxCell id="D42v3AOIPiJxgvPzYh7Y-281" value="06.05.23" style="strokeColor=#999999;" parent="1" vertex="1">
          <mxGeometry x="526.5000000000031" y="900.0000000000035" width="80.00000000000028" height="20" as="geometry" />
        </mxCell>
        <mxCell id="D42v3AOIPiJxgvPzYh7Y-282" value="08.05.23" style="strokeColor=#999999;" parent="1" vertex="1">
          <mxGeometry x="606.5000000000026" y="900.0000000000039" width="80.00000000000028" height="20" as="geometry" />
        </mxCell>
        <mxCell id="D42v3AOIPiJxgvPzYh7Y-290" value="F" style="strokeColor=#999999;fillColor=#DEEDFF;" parent="1" vertex="1">
          <mxGeometry x="126.50000000000102" y="920.0000000000036" width="40" height="20" as="geometry" />
        </mxCell>
        <mxCell id="D42v3AOIPiJxgvPzYh7Y-292" value="Testing" style="align=left;strokeColor=#999999;fillColor=#DEEDFF;" parent="1" vertex="1">
          <mxGeometry x="166.500000000001" y="920.0000000000036" width="200" height="20" as="geometry" />
        </mxCell>
        <mxCell id="D42v3AOIPiJxgvPzYh7Y-293" value="7 days" style="strokeColor=#999999;fillColor=#DEEDFF;" parent="1" vertex="1">
          <mxGeometry x="446.5000000000028" y="920.0000000000035" width="80.00000000000028" height="20" as="geometry" />
        </mxCell>
        <mxCell id="D42v3AOIPiJxgvPzYh7Y-294" value="08.05.23" style="strokeColor=#999999;fillColor=#DEEDFF;" parent="1" vertex="1">
          <mxGeometry x="526.5000000000031" y="920.0000000000035" width="80.00000000000028" height="20" as="geometry" />
        </mxCell>
        <mxCell id="D42v3AOIPiJxgvPzYh7Y-295" value="15.05.23" style="strokeColor=#999999;fillColor=#DEEDFF;" parent="1" vertex="1">
          <mxGeometry x="606.5000000000031" y="920.0000000000035" width="80.00000000000028" height="20" as="geometry" />
        </mxCell>
        <mxCell id="D42v3AOIPiJxgvPzYh7Y-296" value="1" style="strokeColor=#999999;" parent="1" vertex="1">
          <mxGeometry x="126.50000000000102" y="940.0000000000036" width="40" height="20" as="geometry" />
        </mxCell>
        <mxCell id="D42v3AOIPiJxgvPzYh7Y-297" value="Run and Maintance" style="align=left;strokeColor=#999999;" parent="1" vertex="1">
          <mxGeometry x="166.500000000001" y="940.0000000000036" width="200" height="20" as="geometry" />
        </mxCell>
        <mxCell id="D42v3AOIPiJxgvPzYh7Y-298" value="7 days" style="strokeColor=#999999;" parent="1" vertex="1">
          <mxGeometry x="446.5000000000028" y="940.0000000000035" width="80.00000000000028" height="20" as="geometry" />
        </mxCell>
        <mxCell id="D42v3AOIPiJxgvPzYh7Y-299" value="08.05.23" style="strokeColor=#999999;" parent="1" vertex="1">
          <mxGeometry x="526.5000000000031" y="940.0000000000035" width="80.00000000000028" height="20" as="geometry" />
        </mxCell>
        <mxCell id="D42v3AOIPiJxgvPzYh7Y-300" value="15.05.23" style="strokeColor=#999999;" parent="1" vertex="1">
          <mxGeometry x="606.5000000000031" y="940.0000000000035" width="80.00000000000028" height="20" as="geometry" />
        </mxCell>
        <mxCell id="D42v3AOIPiJxgvPzYh7Y-301" value="G" style="strokeColor=#999999;fillColor=#DEEDFF;" parent="1" vertex="1">
          <mxGeometry x="126.50000000000102" y="960.0000000000036" width="40" height="20" as="geometry" />
        </mxCell>
        <mxCell id="D42v3AOIPiJxgvPzYh7Y-302" value="1" style="strokeColor=#999999;" parent="1" vertex="1">
          <mxGeometry x="126.50000000000102" y="980.0000000000036" width="40" height="20" as="geometry" />
        </mxCell>
        <mxCell id="D42v3AOIPiJxgvPzYh7Y-303" value="2" style="strokeColor=#999999;" parent="1" vertex="1">
          <mxGeometry x="126.50000000000102" y="1000.0000000000036" width="40" height="20" as="geometry" />
        </mxCell>
        <mxCell id="D42v3AOIPiJxgvPzYh7Y-304" value="3" style="strokeColor=#999999;" parent="1" vertex="1">
          <mxGeometry x="126.50000000000102" y="1020.0000000000036" width="40" height="20" as="geometry" />
        </mxCell>
        <mxCell id="D42v3AOIPiJxgvPzYh7Y-305" value="Complete Document" style="align=left;strokeColor=#999999;fillColor=#DEEDFF;" parent="1" vertex="1">
          <mxGeometry x="166.500000000001" y="960.0000000000036" width="200" height="20" as="geometry" />
        </mxCell>
        <mxCell id="D42v3AOIPiJxgvPzYh7Y-306" value="Powerpoint" style="align=left;strokeColor=#999999;" parent="1" vertex="1">
          <mxGeometry x="166.500000000001" y="980.0000000000036" width="200" height="20" as="geometry" />
        </mxCell>
        <mxCell id="D42v3AOIPiJxgvPzYh7Y-307" value="Report" style="align=left;strokeColor=#999999;" parent="1" vertex="1">
          <mxGeometry x="166.500000000001" y="1000.0000000000036" width="200" height="20" as="geometry" />
        </mxCell>
        <mxCell id="D42v3AOIPiJxgvPzYh7Y-308" value="References" style="align=left;strokeColor=#999999;" parent="1" vertex="1">
          <mxGeometry x="166.500000000001" y="1020.0000000000036" width="200" height="20" as="geometry" />
        </mxCell>
        <mxCell id="D42v3AOIPiJxgvPzYh7Y-309" value="11 days" style="strokeColor=#999999;fillColor=#DEEDFF;" parent="1" vertex="1">
          <mxGeometry x="446.5000000000028" y="960.0000000000035" width="80.00000000000028" height="20" as="geometry" />
        </mxCell>
        <mxCell id="D42v3AOIPiJxgvPzYh7Y-310" value="25.05.23" style="strokeColor=#999999;fillColor=#DEEDFF;" parent="1" vertex="1">
          <mxGeometry x="606.5000000000027" y="960.0000000000035" width="80.00000000000028" height="20" as="geometry" />
        </mxCell>
        <mxCell id="D42v3AOIPiJxgvPzYh7Y-311" value="15.05.23" style="strokeColor=#999999;fillColor=#DEEDFF;" parent="1" vertex="1">
          <mxGeometry x="526.5000000000027" y="960.0000000000035" width="80.00000000000028" height="20" as="geometry" />
        </mxCell>
        <mxCell id="D42v3AOIPiJxgvPzYh7Y-312" value="4 days" style="strokeColor=#999999;" parent="1" vertex="1">
          <mxGeometry x="446.5000000000028" y="980.0000000000035" width="80.00000000000028" height="20" as="geometry" />
        </mxCell>
        <mxCell id="D42v3AOIPiJxgvPzYh7Y-313" value="4 days" style="strokeColor=#999999;" parent="1" vertex="1">
          <mxGeometry x="446.5000000000028" y="1000.0000000000035" width="80.00000000000028" height="20" as="geometry" />
        </mxCell>
        <mxCell id="D42v3AOIPiJxgvPzYh7Y-314" value="2 days" style="strokeColor=#999999;" parent="1" vertex="1">
          <mxGeometry x="446.5000000000028" y="1020.0000000000035" width="80.00000000000028" height="20" as="geometry" />
        </mxCell>
        <mxCell id="D42v3AOIPiJxgvPzYh7Y-315" value="15.05.23" style="strokeColor=#999999;" parent="1" vertex="1">
          <mxGeometry x="526.5000000000027" y="980.0000000000035" width="80.00000000000028" height="20" as="geometry" />
        </mxCell>
        <mxCell id="D42v3AOIPiJxgvPzYh7Y-316" value="19.05.23" style="strokeColor=#999999;" parent="1" vertex="1">
          <mxGeometry x="526.5000000000027" y="1000.0000000000035" width="80.00000000000028" height="20" as="geometry" />
        </mxCell>
        <mxCell id="D42v3AOIPiJxgvPzYh7Y-317" value="23.05.23" style="strokeColor=#999999;" parent="1" vertex="1">
          <mxGeometry x="526.5000000000027" y="1020.0000000000035" width="80.00000000000028" height="20" as="geometry" />
        </mxCell>
        <mxCell id="D42v3AOIPiJxgvPzYh7Y-318" value="19.05.23" style="strokeColor=#999999;" parent="1" vertex="1">
          <mxGeometry x="606.5000000000027" y="980.0000000000035" width="80.00000000000028" height="20" as="geometry" />
        </mxCell>
        <mxCell id="D42v3AOIPiJxgvPzYh7Y-319" value="23.05.23" style="strokeColor=#999999;" parent="1" vertex="1">
          <mxGeometry x="606.5000000000027" y="1000.0000000000035" width="80.00000000000028" height="20" as="geometry" />
        </mxCell>
        <mxCell id="D42v3AOIPiJxgvPzYh7Y-320" value="25.05.23" style="strokeColor=#999999;" parent="1" vertex="1">
          <mxGeometry x="606.5000000000027" y="1020.0000000000035" width="80.00000000000028" height="20" as="geometry" />
        </mxCell>
        <mxCell id="D42v3AOIPiJxgvPzYh7Y-327" value="" style="strokeColor=#999999;" parent="1" vertex="1">
          <mxGeometry x="1666" y="379.9999999999999" width="20" height="660" as="geometry" />
        </mxCell>
        <mxCell id="D42v3AOIPiJxgvPzYh7Y-328" value="" style="strokeColor=#999999;fillColor=#CCE5FF;" parent="1" vertex="1">
          <mxGeometry x="1686" y="379.9999999999999" width="20" height="660" as="geometry" />
        </mxCell>
        <mxCell id="D42v3AOIPiJxgvPzYh7Y-329" value="" style="strokeColor=#999999;fillColor=#CCE5FF;" parent="1" vertex="1">
          <mxGeometry x="1706" y="379.9999999999999" width="20" height="660" as="geometry" />
        </mxCell>
        <mxCell id="D42v3AOIPiJxgvPzYh7Y-330" value="" style="strokeColor=#999999;" parent="1" vertex="1">
          <mxGeometry x="1726" y="379.9999999999999" width="20" height="660" as="geometry" />
        </mxCell>
        <mxCell id="D42v3AOIPiJxgvPzYh7Y-331" value="" style="strokeColor=#999999;" parent="1" vertex="1">
          <mxGeometry x="1746" y="379.9999999999999" width="20" height="660" as="geometry" />
        </mxCell>
        <mxCell id="D42v3AOIPiJxgvPzYh7Y-332" value="" style="strokeColor=#999999;fillColor=default;" parent="1" vertex="1">
          <mxGeometry x="1766" y="379.9999999999999" width="20" height="660" as="geometry" />
        </mxCell>
        <mxCell id="D42v3AOIPiJxgvPzYh7Y-333" value="" style="strokeColor=#999999;fillColor=default;" parent="1" vertex="1">
          <mxGeometry x="1786" y="379.9999999999999" width="20" height="660" as="geometry" />
        </mxCell>
        <mxCell id="D42v3AOIPiJxgvPzYh7Y-334" value="Week 8" style="fillColor=#23445D;strokeColor=#999999;strokeWidth=2;fontColor=#FFFFFF;fontStyle=1" parent="1" vertex="1">
          <mxGeometry x="1585.5000000000018" y="340" width="140" height="20" as="geometry" />
        </mxCell>
        <mxCell id="D42v3AOIPiJxgvPzYh7Y-335" value="M" style="fillColor=#23445D;strokeColor=#999999;strokeWidth=2;fontColor=#FFFFFF;fontStyle=1" parent="1" vertex="1">
          <mxGeometry x="1586.0000000000018" y="360" width="20" height="20" as="geometry" />
        </mxCell>
        <mxCell id="D42v3AOIPiJxgvPzYh7Y-336" value="T" style="fillColor=#23445D;strokeColor=#999999;strokeWidth=2;fontColor=#FFFFFF;fontStyle=1" parent="1" vertex="1">
          <mxGeometry x="1605.0000000000018" y="360" width="20" height="20" as="geometry" />
        </mxCell>
        <mxCell id="D42v3AOIPiJxgvPzYh7Y-337" value="W" style="fillColor=#23445D;strokeColor=#999999;strokeWidth=2;fontColor=#FFFFFF;fontStyle=1" parent="1" vertex="1">
          <mxGeometry x="1625.0000000000018" y="360" width="20" height="20" as="geometry" />
        </mxCell>
        <mxCell id="D42v3AOIPiJxgvPzYh7Y-338" value="T" style="fillColor=#23445D;strokeColor=#999999;strokeWidth=2;fontColor=#FFFFFF;fontStyle=1" parent="1" vertex="1">
          <mxGeometry x="1645.0000000000018" y="360" width="20" height="20" as="geometry" />
        </mxCell>
        <mxCell id="D42v3AOIPiJxgvPzYh7Y-339" value="F" style="fillColor=#23445D;strokeColor=#999999;strokeWidth=2;fontColor=#FFFFFF;fontStyle=1" parent="1" vertex="1">
          <mxGeometry x="1665.0000000000016" y="360" width="20" height="20" as="geometry" />
        </mxCell>
        <mxCell id="D42v3AOIPiJxgvPzYh7Y-340" value="S" style="fillColor=#23445D;strokeColor=#999999;strokeWidth=2;fontColor=#FFFFFF;fontStyle=1" parent="1" vertex="1">
          <mxGeometry x="1685.0000000000016" y="360" width="20" height="20" as="geometry" />
        </mxCell>
        <mxCell id="D42v3AOIPiJxgvPzYh7Y-341" value="S" style="fillColor=#23445D;strokeColor=#999999;strokeWidth=2;fontColor=#FFFFFF;fontStyle=1" parent="1" vertex="1">
          <mxGeometry x="1706.0000000000016" y="360" width="20" height="20" as="geometry" />
        </mxCell>
        <mxCell id="D42v3AOIPiJxgvPzYh7Y-344" value="" style="shape=mxgraph.flowchart.process;fillColor=#e51400;strokeColor=#B20000;strokeWidth=2;opacity=80;fontColor=#ffffff;" parent="1" vertex="1">
          <mxGeometry x="1705" y="700" width="64" height="20" as="geometry" />
        </mxCell>
        <mxCell id="D42v3AOIPiJxgvPzYh7Y-345" value="" style="shape=mxgraph.arrows.bent_right_arrow;fillColor=#e51400;strokeColor=#B20000;strokeWidth=2;direction=south;fontColor=#ffffff;opacity=80;" parent="1" vertex="1">
          <mxGeometry x="1708.7500000000018" y="690.0000000000013" width="10.000000000000341" height="9.99999999999983" as="geometry" />
        </mxCell>
        <mxCell id="D42v3AOIPiJxgvPzYh7Y-346" value="" style="strokeColor=#999999;" parent="1" vertex="1">
          <mxGeometry x="1806" y="379.9999999999999" width="20" height="660" as="geometry" />
        </mxCell>
        <mxCell id="D42v3AOIPiJxgvPzYh7Y-347" value="" style="strokeColor=#999999;fillColor=#CCE5FF;" parent="1" vertex="1">
          <mxGeometry x="1826" y="379.9999999999999" width="20" height="660" as="geometry" />
        </mxCell>
        <mxCell id="D42v3AOIPiJxgvPzYh7Y-348" value="" style="strokeColor=#999999;fillColor=#CCE5FF;" parent="1" vertex="1">
          <mxGeometry x="1846" y="379.9999999999999" width="20" height="660" as="geometry" />
        </mxCell>
        <mxCell id="D42v3AOIPiJxgvPzYh7Y-349" value="" style="strokeColor=#999999;" parent="1" vertex="1">
          <mxGeometry x="1866" y="379.9999999999999" width="20" height="660" as="geometry" />
        </mxCell>
        <mxCell id="D42v3AOIPiJxgvPzYh7Y-350" value="" style="strokeColor=#999999;" parent="1" vertex="1">
          <mxGeometry x="1886" y="379.9999999999999" width="20" height="660" as="geometry" />
        </mxCell>
        <mxCell id="D42v3AOIPiJxgvPzYh7Y-351" value="" style="strokeColor=#999999;fillColor=default;" parent="1" vertex="1">
          <mxGeometry x="1906" y="379.9999999999999" width="20" height="660" as="geometry" />
        </mxCell>
        <mxCell id="D42v3AOIPiJxgvPzYh7Y-352" value="" style="strokeColor=#999999;fillColor=default;" parent="1" vertex="1">
          <mxGeometry x="1926" y="379.9999999999999" width="20" height="660" as="geometry" />
        </mxCell>
        <mxCell id="D42v3AOIPiJxgvPzYh7Y-353" value="Week 9" style="fillColor=#23445D;strokeColor=#999999;strokeWidth=2;fontColor=#FFFFFF;fontStyle=1" parent="1" vertex="1">
          <mxGeometry x="1725.0000000000018" y="340" width="140" height="20" as="geometry" />
        </mxCell>
        <mxCell id="D42v3AOIPiJxgvPzYh7Y-354" value="M" style="fillColor=#23445D;strokeColor=#999999;strokeWidth=2;fontColor=#FFFFFF;fontStyle=1" parent="1" vertex="1">
          <mxGeometry x="1725.0000000000018" y="360" width="20" height="20" as="geometry" />
        </mxCell>
        <mxCell id="D42v3AOIPiJxgvPzYh7Y-355" value="T" style="fillColor=#23445D;strokeColor=#999999;strokeWidth=2;fontColor=#FFFFFF;fontStyle=1" parent="1" vertex="1">
          <mxGeometry x="1745.0000000000018" y="360" width="20" height="20" as="geometry" />
        </mxCell>
        <mxCell id="D42v3AOIPiJxgvPzYh7Y-356" value="W" style="fillColor=#23445D;strokeColor=#999999;strokeWidth=2;fontColor=#FFFFFF;fontStyle=1" parent="1" vertex="1">
          <mxGeometry x="1765.0000000000018" y="360" width="20" height="20" as="geometry" />
        </mxCell>
        <mxCell id="D42v3AOIPiJxgvPzYh7Y-357" value="T" style="fillColor=#23445D;strokeColor=#999999;strokeWidth=2;fontColor=#FFFFFF;fontStyle=1" parent="1" vertex="1">
          <mxGeometry x="1785.0000000000018" y="360" width="20" height="20" as="geometry" />
        </mxCell>
        <mxCell id="D42v3AOIPiJxgvPzYh7Y-358" value="F" style="fillColor=#23445D;strokeColor=#999999;strokeWidth=2;fontColor=#FFFFFF;fontStyle=1" parent="1" vertex="1">
          <mxGeometry x="1805.0000000000016" y="360" width="20" height="20" as="geometry" />
        </mxCell>
        <mxCell id="D42v3AOIPiJxgvPzYh7Y-359" value="S" style="fillColor=#23445D;strokeColor=#999999;strokeWidth=2;fontColor=#FFFFFF;fontStyle=1" parent="1" vertex="1">
          <mxGeometry x="1825.0000000000016" y="360" width="20" height="20" as="geometry" />
        </mxCell>
        <mxCell id="D42v3AOIPiJxgvPzYh7Y-360" value="S" style="fillColor=#23445D;strokeColor=#999999;strokeWidth=2;fontColor=#FFFFFF;fontStyle=1" parent="1" vertex="1">
          <mxGeometry x="1845.0000000000016" y="360" width="20" height="20" as="geometry" />
        </mxCell>
        <mxCell id="D42v3AOIPiJxgvPzYh7Y-363" value="" style="shape=mxgraph.flowchart.process;fillColor=#e51400;strokeColor=#B20000;strokeWidth=2;opacity=80;fontColor=#ffffff;" parent="1" vertex="1">
          <mxGeometry x="1766" y="720" width="64" height="20" as="geometry" />
        </mxCell>
        <mxCell id="D42v3AOIPiJxgvPzYh7Y-364" value="" style="shape=mxgraph.arrows.bent_right_arrow;fillColor=#e51400;strokeColor=#B20000;strokeWidth=2;direction=south;fontColor=#ffffff;opacity=80;" parent="1" vertex="1">
          <mxGeometry x="1767.0000000000018" y="710.0000000000013" width="10.000000000000341" height="9.99999999999983" as="geometry" />
        </mxCell>
        <mxCell id="D42v3AOIPiJxgvPzYh7Y-365" value="" style="strokeColor=#999999;" parent="1" vertex="1">
          <mxGeometry x="1946" y="379.9999999999999" width="20" height="660" as="geometry" />
        </mxCell>
        <mxCell id="D42v3AOIPiJxgvPzYh7Y-366" value="" style="strokeColor=#999999;fillColor=#CCE5FF;" parent="1" vertex="1">
          <mxGeometry x="1966" y="379.9999999999999" width="20" height="660" as="geometry" />
        </mxCell>
        <mxCell id="D42v3AOIPiJxgvPzYh7Y-367" value="" style="strokeColor=#999999;fillColor=#CCE5FF;" parent="1" vertex="1">
          <mxGeometry x="1986" y="379.9999999999999" width="20" height="660" as="geometry" />
        </mxCell>
        <mxCell id="D42v3AOIPiJxgvPzYh7Y-368" value="" style="strokeColor=#999999;" parent="1" vertex="1">
          <mxGeometry x="2006" y="379.9999999999999" width="20" height="660" as="geometry" />
        </mxCell>
        <mxCell id="D42v3AOIPiJxgvPzYh7Y-369" value="" style="strokeColor=#999999;" parent="1" vertex="1">
          <mxGeometry x="2026" y="379.9999999999999" width="20" height="660" as="geometry" />
        </mxCell>
        <mxCell id="D42v3AOIPiJxgvPzYh7Y-370" value="" style="strokeColor=#999999;fillColor=default;" parent="1" vertex="1">
          <mxGeometry x="2046" y="379.9999999999999" width="20" height="660" as="geometry" />
        </mxCell>
        <mxCell id="D42v3AOIPiJxgvPzYh7Y-371" value="" style="strokeColor=#999999;fillColor=default;" parent="1" vertex="1">
          <mxGeometry x="2066" y="379.9999999999999" width="20" height="660" as="geometry" />
        </mxCell>
        <mxCell id="D42v3AOIPiJxgvPzYh7Y-372" value="Week 10" style="fillColor=#23445D;strokeColor=#999999;strokeWidth=2;fontColor=#FFFFFF;fontStyle=1" parent="1" vertex="1">
          <mxGeometry x="1865.0000000000018" y="340" width="140" height="20" as="geometry" />
        </mxCell>
        <mxCell id="D42v3AOIPiJxgvPzYh7Y-373" value="M" style="fillColor=#23445D;strokeColor=#999999;strokeWidth=2;fontColor=#FFFFFF;fontStyle=1" parent="1" vertex="1">
          <mxGeometry x="1865.0000000000018" y="360" width="20" height="20" as="geometry" />
        </mxCell>
        <mxCell id="D42v3AOIPiJxgvPzYh7Y-374" value="T" style="fillColor=#23445D;strokeColor=#999999;strokeWidth=2;fontColor=#FFFFFF;fontStyle=1" parent="1" vertex="1">
          <mxGeometry x="1885.0000000000018" y="360" width="20" height="20" as="geometry" />
        </mxCell>
        <mxCell id="D42v3AOIPiJxgvPzYh7Y-375" value="W" style="fillColor=#23445D;strokeColor=#999999;strokeWidth=2;fontColor=#FFFFFF;fontStyle=1" parent="1" vertex="1">
          <mxGeometry x="1905.0000000000018" y="360" width="20" height="20" as="geometry" />
        </mxCell>
        <mxCell id="D42v3AOIPiJxgvPzYh7Y-376" value="T" style="fillColor=#23445D;strokeColor=#999999;strokeWidth=2;fontColor=#FFFFFF;fontStyle=1" parent="1" vertex="1">
          <mxGeometry x="1925.0000000000018" y="360" width="20" height="20" as="geometry" />
        </mxCell>
        <mxCell id="D42v3AOIPiJxgvPzYh7Y-377" value="F" style="fillColor=#23445D;strokeColor=#999999;strokeWidth=2;fontColor=#FFFFFF;fontStyle=1" parent="1" vertex="1">
          <mxGeometry x="1945.0000000000018" y="360" width="20" height="20" as="geometry" />
        </mxCell>
        <mxCell id="D42v3AOIPiJxgvPzYh7Y-378" value="S" style="fillColor=#23445D;strokeColor=#999999;strokeWidth=2;fontColor=#FFFFFF;fontStyle=1" parent="1" vertex="1">
          <mxGeometry x="1965.0000000000018" y="360" width="20" height="20" as="geometry" />
        </mxCell>
        <mxCell id="D42v3AOIPiJxgvPzYh7Y-379" value="S" style="fillColor=#23445D;strokeColor=#999999;strokeWidth=2;fontColor=#FFFFFF;fontStyle=1" parent="1" vertex="1">
          <mxGeometry x="1985.0000000000018" y="360" width="20" height="20" as="geometry" />
        </mxCell>
        <mxCell id="D42v3AOIPiJxgvPzYh7Y-382" value="" style="shape=mxgraph.flowchart.process;fillColor=#e51400;strokeColor=#B20000;strokeWidth=2;opacity=80;fontColor=#ffffff;" parent="1" vertex="1">
          <mxGeometry x="1826" y="760" width="84" height="20" as="geometry" />
        </mxCell>
        <mxCell id="D42v3AOIPiJxgvPzYh7Y-384" value="" style="strokeColor=#999999;" parent="1" vertex="1">
          <mxGeometry x="2086" y="379.9999999999999" width="20" height="660" as="geometry" />
        </mxCell>
        <mxCell id="D42v3AOIPiJxgvPzYh7Y-385" value="" style="strokeColor=#999999;fillColor=#CCE5FF;" parent="1" vertex="1">
          <mxGeometry x="2106" y="379.9999999999999" width="20" height="660" as="geometry" />
        </mxCell>
        <mxCell id="D42v3AOIPiJxgvPzYh7Y-386" value="" style="strokeColor=#999999;fillColor=#CCE5FF;" parent="1" vertex="1">
          <mxGeometry x="2126" y="379.9999999999999" width="20" height="660" as="geometry" />
        </mxCell>
        <mxCell id="D42v3AOIPiJxgvPzYh7Y-387" value="" style="strokeColor=#999999;" parent="1" vertex="1">
          <mxGeometry x="2146" y="379.9999999999999" width="20" height="660" as="geometry" />
        </mxCell>
        <mxCell id="D42v3AOIPiJxgvPzYh7Y-388" value="" style="strokeColor=#999999;" parent="1" vertex="1">
          <mxGeometry x="2166" y="379.9999999999999" width="20" height="660" as="geometry" />
        </mxCell>
        <mxCell id="D42v3AOIPiJxgvPzYh7Y-389" value="" style="strokeColor=#999999;fillColor=default;" parent="1" vertex="1">
          <mxGeometry x="2186" y="379.9999999999999" width="20" height="660" as="geometry" />
        </mxCell>
        <mxCell id="D42v3AOIPiJxgvPzYh7Y-390" value="" style="strokeColor=#999999;fillColor=default;" parent="1" vertex="1">
          <mxGeometry x="2206" y="379.9999999999999" width="20" height="660" as="geometry" />
        </mxCell>
        <mxCell id="D42v3AOIPiJxgvPzYh7Y-391" value="week 11" style="fillColor=#23445D;strokeColor=#999999;strokeWidth=2;fontColor=#FFFFFF;fontStyle=1" parent="1" vertex="1">
          <mxGeometry x="2005.0000000000018" y="340" width="140" height="20" as="geometry" />
        </mxCell>
        <mxCell id="D42v3AOIPiJxgvPzYh7Y-392" value="M" style="fillColor=#23445D;strokeColor=#999999;strokeWidth=2;fontColor=#FFFFFF;fontStyle=1" parent="1" vertex="1">
          <mxGeometry x="2005.0000000000018" y="360" width="20" height="20" as="geometry" />
        </mxCell>
        <mxCell id="D42v3AOIPiJxgvPzYh7Y-393" value="T" style="fillColor=#23445D;strokeColor=#999999;strokeWidth=2;fontColor=#FFFFFF;fontStyle=1" parent="1" vertex="1">
          <mxGeometry x="2025.0000000000018" y="360" width="20" height="20" as="geometry" />
        </mxCell>
        <mxCell id="D42v3AOIPiJxgvPzYh7Y-394" value="W" style="fillColor=#23445D;strokeColor=#999999;strokeWidth=2;fontColor=#FFFFFF;fontStyle=1" parent="1" vertex="1">
          <mxGeometry x="2045.0000000000018" y="360" width="20" height="20" as="geometry" />
        </mxCell>
        <mxCell id="D42v3AOIPiJxgvPzYh7Y-395" value="T" style="fillColor=#23445D;strokeColor=#999999;strokeWidth=2;fontColor=#FFFFFF;fontStyle=1" parent="1" vertex="1">
          <mxGeometry x="2065.000000000002" y="360" width="20" height="20" as="geometry" />
        </mxCell>
        <mxCell id="D42v3AOIPiJxgvPzYh7Y-396" value="F" style="fillColor=#23445D;strokeColor=#999999;strokeWidth=2;fontColor=#FFFFFF;fontStyle=1" parent="1" vertex="1">
          <mxGeometry x="2085.000000000002" y="360" width="20" height="20" as="geometry" />
        </mxCell>
        <mxCell id="D42v3AOIPiJxgvPzYh7Y-397" value="S" style="fillColor=#23445D;strokeColor=#999999;strokeWidth=2;fontColor=#FFFFFF;fontStyle=1" parent="1" vertex="1">
          <mxGeometry x="2105.000000000002" y="360" width="20" height="20" as="geometry" />
        </mxCell>
        <mxCell id="D42v3AOIPiJxgvPzYh7Y-398" value="S" style="fillColor=#23445D;strokeColor=#999999;strokeWidth=2;fontColor=#FFFFFF;fontStyle=1" parent="1" vertex="1">
          <mxGeometry x="2125.000000000002" y="360" width="20" height="20" as="geometry" />
        </mxCell>
        <mxCell id="D42v3AOIPiJxgvPzYh7Y-401" value="" style="shape=mxgraph.flowchart.process;fillColor=#e51400;strokeColor=#B20000;strokeWidth=2;opacity=80;fontColor=#ffffff;" parent="1" vertex="1">
          <mxGeometry x="1906" y="800" width="85" height="20" as="geometry" />
        </mxCell>
        <mxCell id="D42v3AOIPiJxgvPzYh7Y-402" value="" style="shape=mxgraph.arrows.bent_right_arrow;fillColor=#e51400;strokeColor=#B20000;strokeWidth=2;direction=south;fontColor=#ffffff;opacity=80;" parent="1" vertex="1">
          <mxGeometry x="1988.0000000000018" y="810.0000000000013" width="10.000000000000341" height="9.99999999999983" as="geometry" />
        </mxCell>
        <mxCell id="D42v3AOIPiJxgvPzYh7Y-403" value="" style="strokeColor=#999999;" parent="1" vertex="1">
          <mxGeometry x="2225" y="379.9999999999999" width="20" height="660" as="geometry" />
        </mxCell>
        <mxCell id="D42v3AOIPiJxgvPzYh7Y-404" value="" style="strokeColor=#999999;fillColor=#CCE5FF;" parent="1" vertex="1">
          <mxGeometry x="2245" y="379.9999999999999" width="20" height="660" as="geometry" />
        </mxCell>
        <mxCell id="D42v3AOIPiJxgvPzYh7Y-405" value="" style="strokeColor=#999999;fillColor=#CCE5FF;" parent="1" vertex="1">
          <mxGeometry x="2265" y="379.9999999999999" width="20" height="660" as="geometry" />
        </mxCell>
        <mxCell id="D42v3AOIPiJxgvPzYh7Y-406" value="" style="strokeColor=#999999;" parent="1" vertex="1">
          <mxGeometry x="2285" y="379.9999999999999" width="20" height="660" as="geometry" />
        </mxCell>
        <mxCell id="D42v3AOIPiJxgvPzYh7Y-407" value="" style="strokeColor=#999999;" parent="1" vertex="1">
          <mxGeometry x="2305" y="379.9999999999999" width="20" height="660" as="geometry" />
        </mxCell>
        <mxCell id="D42v3AOIPiJxgvPzYh7Y-408" value="" style="strokeColor=#999999;fillColor=default;" parent="1" vertex="1">
          <mxGeometry x="2325" y="379.9999999999999" width="20" height="660" as="geometry" />
        </mxCell>
        <mxCell id="D42v3AOIPiJxgvPzYh7Y-409" value="" style="strokeColor=#999999;fillColor=default;" parent="1" vertex="1">
          <mxGeometry x="2345" y="379.9999999999999" width="20" height="660" as="geometry" />
        </mxCell>
        <mxCell id="D42v3AOIPiJxgvPzYh7Y-410" value="week 12" style="fillColor=#23445D;strokeColor=#999999;strokeWidth=2;fontColor=#FFFFFF;fontStyle=1" parent="1" vertex="1">
          <mxGeometry x="2144.000000000002" y="340" width="140" height="20" as="geometry" />
        </mxCell>
        <mxCell id="D42v3AOIPiJxgvPzYh7Y-411" value="M" style="fillColor=#23445D;strokeColor=#999999;strokeWidth=2;fontColor=#FFFFFF;fontStyle=1" parent="1" vertex="1">
          <mxGeometry x="2144.000000000002" y="360" width="20" height="20" as="geometry" />
        </mxCell>
        <mxCell id="D42v3AOIPiJxgvPzYh7Y-412" value="T" style="fillColor=#23445D;strokeColor=#999999;strokeWidth=2;fontColor=#FFFFFF;fontStyle=1" parent="1" vertex="1">
          <mxGeometry x="2164.000000000002" y="360" width="20" height="20" as="geometry" />
        </mxCell>
        <mxCell id="D42v3AOIPiJxgvPzYh7Y-413" value="W" style="fillColor=#23445D;strokeColor=#999999;strokeWidth=2;fontColor=#FFFFFF;fontStyle=1" parent="1" vertex="1">
          <mxGeometry x="2184.000000000002" y="360" width="20" height="20" as="geometry" />
        </mxCell>
        <mxCell id="D42v3AOIPiJxgvPzYh7Y-414" value="T" style="fillColor=#23445D;strokeColor=#999999;strokeWidth=2;fontColor=#FFFFFF;fontStyle=1" parent="1" vertex="1">
          <mxGeometry x="2204.000000000002" y="360" width="20" height="20" as="geometry" />
        </mxCell>
        <mxCell id="D42v3AOIPiJxgvPzYh7Y-415" value="F" style="fillColor=#23445D;strokeColor=#999999;strokeWidth=2;fontColor=#FFFFFF;fontStyle=1" parent="1" vertex="1">
          <mxGeometry x="2224.000000000002" y="360" width="20" height="20" as="geometry" />
        </mxCell>
        <mxCell id="D42v3AOIPiJxgvPzYh7Y-416" value="S" style="fillColor=#23445D;strokeColor=#999999;strokeWidth=2;fontColor=#FFFFFF;fontStyle=1" parent="1" vertex="1">
          <mxGeometry x="2244.000000000002" y="360" width="20" height="20" as="geometry" />
        </mxCell>
        <mxCell id="D42v3AOIPiJxgvPzYh7Y-417" value="S" style="fillColor=#23445D;strokeColor=#999999;strokeWidth=2;fontColor=#FFFFFF;fontStyle=1" parent="1" vertex="1">
          <mxGeometry x="2264.000000000002" y="360" width="20" height="20" as="geometry" />
        </mxCell>
        <mxCell id="D42v3AOIPiJxgvPzYh7Y-420" value="" style="shape=mxgraph.flowchart.process;fillColor=#e51400;strokeColor=#B20000;strokeWidth=2;opacity=80;fontColor=#ffffff;" parent="1" vertex="1">
          <mxGeometry x="1985.5" y="820" width="105" height="20" as="geometry" />
        </mxCell>
        <mxCell id="D42v3AOIPiJxgvPzYh7Y-422" value="" style="strokeColor=#999999;fillColor=#FFFFFF;" parent="1" vertex="1">
          <mxGeometry x="2365" y="379.9999999999999" width="20" height="660" as="geometry" />
        </mxCell>
        <mxCell id="D42v3AOIPiJxgvPzYh7Y-423" value="" style="strokeColor=#999999;fillColor=#CCE5FF;" parent="1" vertex="1">
          <mxGeometry x="2385" y="379.9999999999999" width="20" height="660" as="geometry" />
        </mxCell>
        <mxCell id="D42v3AOIPiJxgvPzYh7Y-424" value="" style="strokeColor=#999999;fillColor=#CCE5FF;" parent="1" vertex="1">
          <mxGeometry x="2405" y="379.9999999999999" width="20" height="660" as="geometry" />
        </mxCell>
        <mxCell id="D42v3AOIPiJxgvPzYh7Y-425" value="" style="strokeColor=#999999;" parent="1" vertex="1">
          <mxGeometry x="2425" y="379.9999999999999" width="20" height="660" as="geometry" />
        </mxCell>
        <mxCell id="D42v3AOIPiJxgvPzYh7Y-426" value="" style="strokeColor=#999999;" parent="1" vertex="1">
          <mxGeometry x="2445" y="379.9999999999999" width="20" height="660" as="geometry" />
        </mxCell>
        <mxCell id="D42v3AOIPiJxgvPzYh7Y-427" value="" style="strokeColor=#999999;fillColor=default;" parent="1" vertex="1">
          <mxGeometry x="2465" y="379.9999999999999" width="20" height="660" as="geometry" />
        </mxCell>
        <mxCell id="D42v3AOIPiJxgvPzYh7Y-428" value="" style="strokeColor=#999999;fillColor=default;" parent="1" vertex="1">
          <mxGeometry x="2485" y="379.9999999999999" width="20" height="660" as="geometry" />
        </mxCell>
        <mxCell id="D42v3AOIPiJxgvPzYh7Y-429" value="week 13" style="fillColor=#23445D;strokeColor=#999999;strokeWidth=2;fontStyle=1;fontColor=#FFFFFF;" parent="1" vertex="1">
          <mxGeometry x="2284.000000000002" y="340" width="140" height="20" as="geometry" />
        </mxCell>
        <mxCell id="D42v3AOIPiJxgvPzYh7Y-430" value="M" style="fillColor=#23445D;strokeColor=#999999;strokeWidth=2;fontStyle=1;fontColor=#FFFFFF;" parent="1" vertex="1">
          <mxGeometry x="2284.000000000002" y="360" width="20" height="20" as="geometry" />
        </mxCell>
        <mxCell id="D42v3AOIPiJxgvPzYh7Y-431" value="T" style="strokeWidth=2;fontStyle=1;strokeColor=#999999;fillColor=#23445D;fontColor=#FFFFFF;" parent="1" vertex="1">
          <mxGeometry x="2304.000000000002" y="360" width="20" height="20" as="geometry" />
        </mxCell>
        <mxCell id="D42v3AOIPiJxgvPzYh7Y-432" value="W" style="strokeWidth=2;fontStyle=1;strokeColor=#999999;fillColor=#23445D;fontColor=#FFFFFF;" parent="1" vertex="1">
          <mxGeometry x="2324.000000000002" y="360" width="20" height="20" as="geometry" />
        </mxCell>
        <mxCell id="D42v3AOIPiJxgvPzYh7Y-433" value="T" style="strokeWidth=2;fontStyle=1;strokeColor=#999999;fillColor=#23445D;fontColor=#FFFFFF;" parent="1" vertex="1">
          <mxGeometry x="2344.000000000002" y="360" width="20" height="20" as="geometry" />
        </mxCell>
        <mxCell id="D42v3AOIPiJxgvPzYh7Y-434" value="F" style="strokeWidth=2;fontStyle=1;strokeColor=#999999;fillColor=#23445D;fontColor=#FFFFFF;" parent="1" vertex="1">
          <mxGeometry x="2364.000000000002" y="360" width="20" height="20" as="geometry" />
        </mxCell>
        <mxCell id="D42v3AOIPiJxgvPzYh7Y-435" value="S" style="strokeWidth=2;fontStyle=1;strokeColor=#999999;fillColor=#23445D;fontColor=#FFFFFF;" parent="1" vertex="1">
          <mxGeometry x="2384.000000000002" y="360" width="20" height="20" as="geometry" />
        </mxCell>
        <mxCell id="D42v3AOIPiJxgvPzYh7Y-436" value="S" style="strokeWidth=2;fontStyle=1;strokeColor=#999999;fillColor=#23445D;fontColor=#FFFFFF;" parent="1" vertex="1">
          <mxGeometry x="2404.000000000002" y="360" width="20" height="20" as="geometry" />
        </mxCell>
        <mxCell id="_IGhHA7aJxn8vTeBmh6M-278" value="" style="shape=mxgraph.flowchart.process;fillColor=#e51400;strokeColor=#B20000;strokeWidth=2;opacity=80;fontColor=#ffffff;" parent="1" vertex="1">
          <mxGeometry x="687" y="400" width="402" height="20" as="geometry" />
        </mxCell>
        <mxCell id="_IGhHA7aJxn8vTeBmh6M-279" value="" style="shape=mxgraph.flowchart.process;fillColor=#e51400;strokeColor=#B20000;strokeWidth=2;opacity=80;fontColor=#ffffff;" parent="1" vertex="1">
          <mxGeometry x="1306.5" y="600" width="523.5" height="20" as="geometry" />
        </mxCell>
        <mxCell id="_IGhHA7aJxn8vTeBmh6M-280" value="" style="shape=mxgraph.arrows.bent_right_arrow;fillColor=#e51400;strokeColor=#B20000;strokeWidth=2;direction=south;fontColor=#ffffff;opacity=80;" parent="1" vertex="1">
          <mxGeometry x="1609.25" y="670.0000000000023" width="10.000000000000341" height="9.99999999999983" as="geometry" />
        </mxCell>
        <mxCell id="_IGhHA7aJxn8vTeBmh6M-281" value="" style="shape=mxgraph.flowchart.process;fillColor=#e51400;strokeColor=#B20000;strokeWidth=2;opacity=80;fontColor=#ffffff;" parent="1" vertex="1">
          <mxGeometry x="1606.25" y="680" width="103.5" height="20" as="geometry" />
        </mxCell>
        <mxCell id="_IGhHA7aJxn8vTeBmh6M-283" value="" style="shape=mxgraph.flowchart.process;fillColor=#e51400;strokeColor=#B20000;strokeWidth=2;opacity=80;fontColor=#ffffff;" parent="1" vertex="1">
          <mxGeometry x="1826" y="740" width="84" height="20" as="geometry" />
        </mxCell>
        <mxCell id="_IGhHA7aJxn8vTeBmh6M-284" value="" style="shape=mxgraph.flowchart.process;fillColor=#e51400;strokeColor=#B20000;strokeWidth=2;opacity=80;fontColor=#ffffff;" parent="1" vertex="1">
          <mxGeometry x="1908" y="780" width="402" height="20" as="geometry" />
        </mxCell>
        <mxCell id="_IGhHA7aJxn8vTeBmh6M-285" value="" style="shape=mxgraph.arrows.bent_right_arrow;fillColor=#e51400;strokeColor=#B20000;strokeWidth=2;direction=south;fontColor=#ffffff;opacity=80;" parent="1" vertex="1">
          <mxGeometry x="2087.500000000002" y="830.0000000000013" width="10.000000000000341" height="9.99999999999983" as="geometry" />
        </mxCell>
        <mxCell id="_IGhHA7aJxn8vTeBmh6M-286" value="" style="shape=mxgraph.flowchart.process;fillColor=#e51400;strokeColor=#B20000;strokeWidth=2;opacity=80;fontColor=#ffffff;" parent="1" vertex="1">
          <mxGeometry x="2085.75" y="840" width="64.25" height="20" as="geometry" />
        </mxCell>
        <mxCell id="_IGhHA7aJxn8vTeBmh6M-287" value="" style="shape=mxgraph.arrows.bent_right_arrow;fillColor=#e51400;strokeColor=#B20000;strokeWidth=2;direction=south;fontColor=#ffffff;opacity=80;" parent="1" vertex="1">
          <mxGeometry x="2148.250000000002" y="850.0000000000013" width="10.000000000000341" height="9.99999999999983" as="geometry" />
        </mxCell>
        <mxCell id="_IGhHA7aJxn8vTeBmh6M-288" value="" style="shape=mxgraph.flowchart.process;fillColor=#e51400;strokeColor=#B20000;strokeWidth=2;opacity=80;fontColor=#ffffff;" parent="1" vertex="1">
          <mxGeometry x="2145.75" y="860" width="64.25" height="20" as="geometry" />
        </mxCell>
        <mxCell id="_IGhHA7aJxn8vTeBmh6M-289" value="" style="shape=mxgraph.arrows.bent_right_arrow;fillColor=#e51400;strokeColor=#B20000;strokeWidth=2;direction=south;fontColor=#ffffff;opacity=80;" parent="1" vertex="1">
          <mxGeometry x="2207.000000000002" y="870.0000000000013" width="10.000000000000341" height="9.99999999999983" as="geometry" />
        </mxCell>
        <mxCell id="_IGhHA7aJxn8vTeBmh6M-290" value="" style="shape=mxgraph.flowchart.process;fillColor=#e51400;strokeColor=#B20000;strokeWidth=2;opacity=80;fontColor=#ffffff;" parent="1" vertex="1">
          <mxGeometry x="2206" y="880" width="65" height="20" as="geometry" />
        </mxCell>
        <mxCell id="_IGhHA7aJxn8vTeBmh6M-291" value="" style="shape=mxgraph.arrows.bent_right_arrow;fillColor=#e51400;strokeColor=#B20000;strokeWidth=2;direction=south;fontColor=#ffffff;opacity=80;" parent="1" vertex="1">
          <mxGeometry x="2266.500000000002" y="890.0000000000013" width="10.000000000000341" height="9.99999999999983" as="geometry" />
        </mxCell>
        <mxCell id="_IGhHA7aJxn8vTeBmh6M-292" value="" style="shape=mxgraph.flowchart.process;fillColor=#e51400;strokeColor=#B20000;strokeWidth=2;opacity=80;fontColor=#ffffff;" parent="1" vertex="1">
          <mxGeometry x="2264.75" y="900" width="45.25" height="20" as="geometry" />
        </mxCell>
        <mxCell id="_IGhHA7aJxn8vTeBmh6M-293" value="" style="shape=mxgraph.flowchart.process;fillColor=#e51400;strokeColor=#B20000;strokeWidth=2;opacity=80;fontColor=#ffffff;" parent="1" vertex="1">
          <mxGeometry x="2305" y="920" width="145" height="20" as="geometry" />
        </mxCell>
        <mxCell id="_IGhHA7aJxn8vTeBmh6M-294" value="" style="strokeColor=#999999;fillColor=#FFFFFF;" parent="1" vertex="1">
          <mxGeometry x="2504" y="379.9999999999999" width="20" height="660" as="geometry" />
        </mxCell>
        <mxCell id="_IGhHA7aJxn8vTeBmh6M-295" value="" style="strokeColor=#999999;fillColor=#CCE5FF;" parent="1" vertex="1">
          <mxGeometry x="2524" y="379.9999999999999" width="20" height="660" as="geometry" />
        </mxCell>
        <mxCell id="_IGhHA7aJxn8vTeBmh6M-296" value="" style="strokeColor=#999999;fillColor=#CCE5FF;" parent="1" vertex="1">
          <mxGeometry x="2544" y="379.9999999999999" width="20" height="660" as="geometry" />
        </mxCell>
        <mxCell id="_IGhHA7aJxn8vTeBmh6M-297" value="" style="strokeColor=#999999;" parent="1" vertex="1">
          <mxGeometry x="2564" y="379.9999999999999" width="20" height="660" as="geometry" />
        </mxCell>
        <mxCell id="_IGhHA7aJxn8vTeBmh6M-298" value="" style="strokeColor=#999999;" parent="1" vertex="1">
          <mxGeometry x="2584" y="379.9999999999999" width="20" height="660" as="geometry" />
        </mxCell>
        <mxCell id="_IGhHA7aJxn8vTeBmh6M-299" value="" style="strokeColor=#999999;fillColor=default;" parent="1" vertex="1">
          <mxGeometry x="2604" y="379.9999999999999" width="20" height="660" as="geometry" />
        </mxCell>
        <mxCell id="_IGhHA7aJxn8vTeBmh6M-300" value="" style="strokeColor=#999999;fillColor=default;" parent="1" vertex="1">
          <mxGeometry x="2624" y="379.9999999999999" width="20" height="660" as="geometry" />
        </mxCell>
        <mxCell id="_IGhHA7aJxn8vTeBmh6M-301" value="week 14" style="fillColor=#23445D;strokeColor=#999999;strokeWidth=2;fontStyle=1;fontColor=#FFFFFF;" parent="1" vertex="1">
          <mxGeometry x="2423.000000000002" y="340" width="140" height="20" as="geometry" />
        </mxCell>
        <mxCell id="_IGhHA7aJxn8vTeBmh6M-302" value="M" style="fillColor=#23445D;strokeColor=#999999;strokeWidth=2;fontStyle=1;fontColor=#FFFFFF;" parent="1" vertex="1">
          <mxGeometry x="2423.000000000002" y="360" width="20" height="20" as="geometry" />
        </mxCell>
        <mxCell id="_IGhHA7aJxn8vTeBmh6M-303" value="T" style="strokeWidth=2;fontStyle=1;strokeColor=#999999;fillColor=#23445D;fontColor=#FFFFFF;" parent="1" vertex="1">
          <mxGeometry x="2443.000000000002" y="360" width="20" height="20" as="geometry" />
        </mxCell>
        <mxCell id="_IGhHA7aJxn8vTeBmh6M-304" value="W" style="strokeWidth=2;fontStyle=1;strokeColor=#999999;fillColor=#23445D;fontColor=#FFFFFF;" parent="1" vertex="1">
          <mxGeometry x="2463.000000000002" y="360" width="20" height="20" as="geometry" />
        </mxCell>
        <mxCell id="_IGhHA7aJxn8vTeBmh6M-305" value="T" style="strokeWidth=2;fontStyle=1;strokeColor=#999999;fillColor=#23445D;fontColor=#FFFFFF;" parent="1" vertex="1">
          <mxGeometry x="2483.000000000002" y="360" width="20" height="20" as="geometry" />
        </mxCell>
        <mxCell id="_IGhHA7aJxn8vTeBmh6M-306" value="F" style="strokeWidth=2;fontStyle=1;strokeColor=#999999;fillColor=#23445D;fontColor=#FFFFFF;" parent="1" vertex="1">
          <mxGeometry x="2503.000000000002" y="360" width="20" height="20" as="geometry" />
        </mxCell>
        <mxCell id="_IGhHA7aJxn8vTeBmh6M-307" value="S" style="strokeWidth=2;fontStyle=1;strokeColor=#999999;fillColor=#23445D;fontColor=#FFFFFF;" parent="1" vertex="1">
          <mxGeometry x="2523.000000000002" y="360" width="20" height="20" as="geometry" />
        </mxCell>
        <mxCell id="_IGhHA7aJxn8vTeBmh6M-308" value="S" style="strokeWidth=2;fontStyle=1;strokeColor=#999999;fillColor=#23445D;fontColor=#FFFFFF;" parent="1" vertex="1">
          <mxGeometry x="2543.000000000002" y="360" width="20" height="20" as="geometry" />
        </mxCell>
        <mxCell id="_IGhHA7aJxn8vTeBmh6M-311" value="" style="shape=mxgraph.flowchart.process;fillColor=#e51400;strokeColor=#B20000;strokeWidth=2;opacity=80;fontColor=#ffffff;" parent="1" vertex="1">
          <mxGeometry x="2303.75" y="940" width="147.5" height="20" as="geometry" />
        </mxCell>
        <mxCell id="_IGhHA7aJxn8vTeBmh6M-312" value="" style="shape=mxgraph.flowchart.process;fillColor=#e51400;strokeColor=#B20000;strokeWidth=2;opacity=80;fontColor=#ffffff;" parent="1" vertex="1">
          <mxGeometry x="2445" y="960" width="185" height="20" as="geometry" />
        </mxCell>
        <mxCell id="_IGhHA7aJxn8vTeBmh6M-313" value="" style="shape=mxgraph.flowchart.process;fillColor=#e51400;strokeColor=#B20000;strokeWidth=2;opacity=80;fontColor=#ffffff;" parent="1" vertex="1">
          <mxGeometry x="2445" y="980" width="85" height="20" as="geometry" />
        </mxCell>
        <mxCell id="_IGhHA7aJxn8vTeBmh6M-314" value="" style="shape=mxgraph.flowchart.process;fillColor=#e51400;strokeColor=#B20000;strokeWidth=2;opacity=80;fontColor=#ffffff;" parent="1" vertex="1">
          <mxGeometry x="2524" y="1000" width="85" height="20" as="geometry" />
        </mxCell>
        <mxCell id="_IGhHA7aJxn8vTeBmh6M-315" value="" style="shape=mxgraph.arrows.bent_right_arrow;fillColor=#e51400;strokeColor=#B20000;strokeWidth=2;direction=south;fontColor=#ffffff;opacity=80;" parent="1" vertex="1">
          <mxGeometry x="2529.000000000002" y="990.0000000000013" width="10.000000000000341" height="9.99999999999983" as="geometry" />
        </mxCell>
        <mxCell id="_IGhHA7aJxn8vTeBmh6M-317" value="" style="shape=mxgraph.arrows.bent_right_arrow;fillColor=#e51400;strokeColor=#B20000;strokeWidth=2;direction=south;fontColor=#ffffff;opacity=80;" parent="1" vertex="1">
          <mxGeometry x="2607.000000000002" y="1010.0000000000013" width="10.000000000000341" height="9.99999999999983" as="geometry" />
        </mxCell>
        <mxCell id="_IGhHA7aJxn8vTeBmh6M-318" value="" style="shape=mxgraph.flowchart.process;fillColor=#e51400;strokeColor=#B20000;strokeWidth=2;opacity=80;fontColor=#ffffff;" parent="1" vertex="1">
          <mxGeometry x="2602" y="1020" width="46" height="20" as="geometry" />
        </mxCell>
        <mxCell id="_IGhHA7aJxn8vTeBmh6M-322" value="week 15" style="fillColor=#23445D;strokeColor=#999999;strokeWidth=2;fontStyle=1;fontColor=#FFFFFF;" parent="1" vertex="1">
          <mxGeometry x="2558" y="340" width="87" height="20" as="geometry" />
        </mxCell>
        <mxCell id="_IGhHA7aJxn8vTeBmh6M-323" value="M" style="strokeWidth=2;fontStyle=1;strokeColor=#999999;fillColor=#23445D;fontColor=#FFFFFF;" parent="1" vertex="1">
          <mxGeometry x="2563.000000000002" y="360" width="20" height="20" as="geometry" />
        </mxCell>
        <mxCell id="_IGhHA7aJxn8vTeBmh6M-324" value="W" style="strokeWidth=2;fontStyle=1;strokeColor=#999999;fillColor=#23445D;fontColor=#FFFFFF;" parent="1" vertex="1">
          <mxGeometry x="2602.000000000002" y="360" width="20" height="20" as="geometry" />
        </mxCell>
        <mxCell id="_IGhHA7aJxn8vTeBmh6M-325" value="T" style="strokeWidth=2;fontStyle=1;strokeColor=#999999;fillColor=#23445D;fontColor=#FFFFFF;" parent="1" vertex="1">
          <mxGeometry x="2624.000000000002" y="360" width="20" height="20" as="geometry" />
        </mxCell>
        <mxCell id="_IGhHA7aJxn8vTeBmh6M-326" value="T" style="strokeWidth=2;fontStyle=1;strokeColor=#999999;fillColor=#23445D;fontColor=#FFFFFF;" parent="1" vertex="1">
          <mxGeometry x="2584.000000000002" y="360" width="20" height="20" as="geometry" />
        </mxCell>
        <mxCell id="PKh9Vj9JBxwzqT7HPsBS-276" value="" style="strokeColor=#999999;fillColor=#ADC3D9" parent="1" vertex="1">
          <mxGeometry x="366.50000000000176" y="380" width="80.00000000000028" height="20" as="geometry" />
        </mxCell>
        <mxCell id="PKh9Vj9JBxwzqT7HPsBS-277" value="" style="strokeColor=#999999;fillColor=#CCE5FF" parent="1" vertex="1">
          <mxGeometry x="366.500000000002" y="399.99999999999983" width="80.00000000000028" height="20" as="geometry" />
        </mxCell>
        <mxCell id="PKh9Vj9JBxwzqT7HPsBS-278" value="Vinh and Huy" style="strokeColor=#999999;" parent="1" vertex="1">
          <mxGeometry x="366.500000000002" y="419.9999999999997" width="80.00000000000028" height="20" as="geometry" />
        </mxCell>
        <mxCell id="PKh9Vj9JBxwzqT7HPsBS-279" value="Vinh and Huy" style="strokeColor=#999999;" parent="1" vertex="1">
          <mxGeometry x="366.5000000000017" y="440.0000000000001" width="80.00000000000028" height="20" as="geometry" />
        </mxCell>
        <mxCell id="PKh9Vj9JBxwzqT7HPsBS-280" value="Vinh and Huy" style="strokeColor=#999999;" parent="1" vertex="1">
          <mxGeometry x="366.50000000000165" y="460.0000000000001" width="80.00000000000028" height="20" as="geometry" />
        </mxCell>
        <mxCell id="PKh9Vj9JBxwzqT7HPsBS-281" value="Vinh and Huy" style="strokeColor=#999999;" parent="1" vertex="1">
          <mxGeometry x="366.50000000000165" y="480.00000000000034" width="80.00000000000028" height="20" as="geometry" />
        </mxCell>
        <mxCell id="PKh9Vj9JBxwzqT7HPsBS-282" value="Vinh and Huy" style="strokeColor=#999999;" parent="1" vertex="1">
          <mxGeometry x="366.5000000000024" y="500.0000000000007" width="80.00000000000028" height="20" as="geometry" />
        </mxCell>
        <mxCell id="PKh9Vj9JBxwzqT7HPsBS-283" value="" style="strokeColor=#999999;fillColor=#DEEDFF;" parent="1" vertex="1">
          <mxGeometry x="366.5000000000024" y="520.0000000000006" width="80.00000000000028" height="20" as="geometry" />
        </mxCell>
        <mxCell id="PKh9Vj9JBxwzqT7HPsBS-284" value="Vinh" style="strokeColor=#999999;" parent="1" vertex="1">
          <mxGeometry x="366.5000000000021" y="540.0000000000009" width="80.00000000000028" height="20" as="geometry" />
        </mxCell>
        <mxCell id="PKh9Vj9JBxwzqT7HPsBS-285" value="Huy" style="strokeColor=#999999;" parent="1" vertex="1">
          <mxGeometry x="366.50000000000205" y="560.0000000000009" width="80.00000000000028" height="20" as="geometry" />
        </mxCell>
        <mxCell id="PKh9Vj9JBxwzqT7HPsBS-286" value="Huy" style="strokeColor=#999999;" parent="1" vertex="1">
          <mxGeometry x="366.50000000000205" y="580.0000000000011" width="80.00000000000028" height="20" as="geometry" />
        </mxCell>
        <mxCell id="PKh9Vj9JBxwzqT7HPsBS-287" value="" style="strokeColor=#999999;fillColor=#DEEDFF;" parent="1" vertex="1">
          <mxGeometry x="366.5000000000017" y="600.0000000000015" width="80.00000000000028" height="20" as="geometry" />
        </mxCell>
        <mxCell id="PKh9Vj9JBxwzqT7HPsBS-288" value="Vinh" style="strokeColor=#999999;" parent="1" vertex="1">
          <mxGeometry x="366.5000000000017" y="620.0000000000014" width="80.00000000000028" height="20" as="geometry" />
        </mxCell>
        <mxCell id="PKh9Vj9JBxwzqT7HPsBS-289" value="Huy" style="strokeColor=#999999;" parent="1" vertex="1">
          <mxGeometry x="366.5000000000014" y="640.0000000000018" width="80.00000000000028" height="20" as="geometry" />
        </mxCell>
        <mxCell id="PKh9Vj9JBxwzqT7HPsBS-290" value="Huy" style="strokeColor=#999999;fillColor=#FFFFFF" parent="1" vertex="1">
          <mxGeometry x="366.50000000000136" y="660.0000000000018" width="80.00000000000028" height="20" as="geometry" />
        </mxCell>
        <mxCell id="PKh9Vj9JBxwzqT7HPsBS-291" value="Huy" style="strokeColor=#999999;" parent="1" vertex="1">
          <mxGeometry x="366.50000000000136" y="680.000000000002" width="80.00000000000028" height="20" as="geometry" />
        </mxCell>
        <mxCell id="PKh9Vj9JBxwzqT7HPsBS-292" value="Vinh" style="strokeColor=#999999;" parent="1" vertex="1">
          <mxGeometry x="366.50000000000273" y="700.0000000000023" width="80.00000000000028" height="20" as="geometry" />
        </mxCell>
        <mxCell id="PKh9Vj9JBxwzqT7HPsBS-293" value="Vinh" style="strokeColor=#999999;" parent="1" vertex="1">
          <mxGeometry x="366.50000000000273" y="720.000000000002" width="80.00000000000028" height="20" as="geometry" />
        </mxCell>
        <mxCell id="PKh9Vj9JBxwzqT7HPsBS-294" value="" style="strokeColor=#999999;fillColor=#DEEDFF;" parent="1" vertex="1">
          <mxGeometry x="366.50000000000244" y="740.0000000000025" width="80.00000000000028" height="20" as="geometry" />
        </mxCell>
        <mxCell id="PKh9Vj9JBxwzqT7HPsBS-295" value="Vinh and Huy" style="strokeColor=#999999;" parent="1" vertex="1">
          <mxGeometry x="366.5000000000024" y="760.0000000000025" width="80.00000000000028" height="20" as="geometry" />
        </mxCell>
        <mxCell id="PKh9Vj9JBxwzqT7HPsBS-296" value="" style="strokeColor=#999999;fillColor=#DEEDFF;" parent="1" vertex="1">
          <mxGeometry x="366.5000000000024" y="780.0000000000027" width="80.00000000000028" height="20" as="geometry" />
        </mxCell>
        <mxCell id="PKh9Vj9JBxwzqT7HPsBS-297" value="Vinh" style="strokeColor=#999999;" parent="1" vertex="1">
          <mxGeometry x="366.5000000000031" y="800.000000000003" width="80.00000000000028" height="20" as="geometry" />
        </mxCell>
        <mxCell id="PKh9Vj9JBxwzqT7HPsBS-298" value="Huy" style="strokeColor=#999999;" parent="1" vertex="1">
          <mxGeometry x="366.5000000000031" y="820.000000000003" width="80.00000000000028" height="20" as="geometry" />
        </mxCell>
        <mxCell id="PKh9Vj9JBxwzqT7HPsBS-299" value="Huy" style="strokeColor=#999999;" parent="1" vertex="1">
          <mxGeometry x="366.50000000000284" y="840.0000000000033" width="80.00000000000028" height="20" as="geometry" />
        </mxCell>
        <mxCell id="PKh9Vj9JBxwzqT7HPsBS-300" value="Huy" style="strokeColor=#999999;" parent="1" vertex="1">
          <mxGeometry x="366.5000000000028" y="860.0000000000033" width="80.00000000000028" height="20" as="geometry" />
        </mxCell>
        <mxCell id="PKh9Vj9JBxwzqT7HPsBS-301" value="Huy" style="strokeColor=#999999;" parent="1" vertex="1">
          <mxGeometry x="366.5000000000028" y="880.0000000000035" width="80.00000000000028" height="20" as="geometry" />
        </mxCell>
        <mxCell id="PKh9Vj9JBxwzqT7HPsBS-302" value="Task Owner" style="fillColor=#23445D;strokeColor=#999999;strokeWidth=2;fontColor=#FFFFFF;fontStyle=1" parent="1" vertex="1">
          <mxGeometry x="366.50000000000176" y="340.00000000000006" width="80.00000000000006" height="40.00000000000001" as="geometry" />
        </mxCell>
        <mxCell id="PKh9Vj9JBxwzqT7HPsBS-303" value="Vinh" style="strokeColor=#999999;" parent="1" vertex="1">
          <mxGeometry x="366.5000000000028" y="900.0000000000035" width="80.00000000000028" height="20" as="geometry" />
        </mxCell>
        <mxCell id="PKh9Vj9JBxwzqT7HPsBS-304" value="" style="strokeColor=#999999;fillColor=#DEEDFF;" parent="1" vertex="1">
          <mxGeometry x="366.5000000000028" y="920.0000000000035" width="80.00000000000028" height="20" as="geometry" />
        </mxCell>
        <mxCell id="PKh9Vj9JBxwzqT7HPsBS-305" value="Vinh and Huy" style="strokeColor=#999999;" parent="1" vertex="1">
          <mxGeometry x="366.5000000000028" y="940.0000000000035" width="80.00000000000028" height="20" as="geometry" />
        </mxCell>
        <mxCell id="PKh9Vj9JBxwzqT7HPsBS-306" value="" style="strokeColor=#999999;fillColor=#DEEDFF;" parent="1" vertex="1">
          <mxGeometry x="366.5000000000028" y="960.0000000000035" width="80.00000000000028" height="20" as="geometry" />
        </mxCell>
        <mxCell id="PKh9Vj9JBxwzqT7HPsBS-307" value="Vinh and Huy" style="strokeColor=#999999;" parent="1" vertex="1">
          <mxGeometry x="366.5000000000028" y="980.0000000000035" width="80.00000000000028" height="20" as="geometry" />
        </mxCell>
        <mxCell id="PKh9Vj9JBxwzqT7HPsBS-308" value="Vinh and Huy" style="strokeColor=#999999;" parent="1" vertex="1">
          <mxGeometry x="366.5000000000028" y="1000.0000000000035" width="80.00000000000028" height="20" as="geometry" />
        </mxCell>
        <mxCell id="PKh9Vj9JBxwzqT7HPsBS-309" value="Vinh and Huy" style="strokeColor=#999999;" parent="1" vertex="1">
          <mxGeometry x="366.5000000000028" y="1020.0000000000036" width="80.00000000000028" height="20" as="geometry" />
        </mxCell>
      </root>
    </mxGraphModel>
  </diagram>
</mxfile>
